<svg width="32" height="32" viewBox="0 0 32 32" fill="none" xmlns="http://www.w3.org/2000/svg">
<mask id="mask0" mask-type="alpha" maskUnits="userSpaceOnUse" x="0" y="0" width="32" height="32">
<rect width="32" height="32" fill="#C4C4C4"/>
</mask>
<g mask="url(#mask0)">
<path d="M20.292 26.3H24.744L20.236 17.508C22.784 16.416 23.904 14.512 23.904 12.16C23.904 7.904 21.356 6 14.664 6H8V26.3H12.004V18.348H15.308H16.26L20.292 26.3ZM15.112 9.136C17.828 9.136 19.788 9.836 19.788 12.188C19.788 14.204 18.444 15.24 15.308 15.24H12.004V9.136H15.112Z" fill="#323232"/>
<path d="M33 26.3H37.088L38.516 22.184H46.412L47.84 26.3H52.18L44.592 6H40.56L33 26.3ZM42.464 10.9L45.264 18.908H39.664L42.464 10.9Z" fill="#323232"/>
<path d="M53.3972 26.3H61.6292C65.8012 26.3 69.4132 24.676 69.4132 20.308C69.4132 17.508 67.9572 16.332 66.3892 15.576C67.4252 14.904 68.6852 13.196 68.6852 11.292C68.6852 7.12 64.8492 6 61.2932 6H53.3972V26.3ZM57.4012 17.396H61.6572C64.1492 17.396 65.3252 18.404 65.3252 20.308C65.3252 22.184 64.1772 23.164 61.8252 23.164H57.4012V17.396ZM57.4012 9.136H61.5452C63.4212 9.136 64.5692 10.088 64.5692 11.684C64.5692 13.476 63.4492 14.372 61.5452 14.372H57.4012V9.136Z" fill="#323232"/>
<path d="M79.6349 6H75.6309V26.3H79.6349V6Z" fill="#323232"/>
<path d="M91.4912 26.3H95.4952V9.248H101.767V6H85.2472V9.248H91.4912V26.3Z" fill="#323232"/>
</g>
</svg>
