<?xml version="1.0" standalone="no"?>
<!DOCTYPE svg PUBLIC "-//W3C//DTD SVG 20010904//EN"
 "http://www.w3.org/TR/2001/REC-SVG-20010904/DTD/svg10.dtd">
<svg version="1.0" xmlns="http://www.w3.org/2000/svg"
 width="700.000000pt" height="700.000000pt" viewBox="0 0 700.000000 700.000000"
 preserveAspectRatio="xMidYMid meet">
<metadata>
Created by potrace 1.14, written by Peter Selinger 2001-2017
</metadata>
<g transform="translate(0.000000,700.000000) scale(0.100000,-0.100000)"
fill="#000000" stroke="none">
<path d="M1750 3469 c0 -1220 3 -2219 8 -2220 22 -3 849 -4 857 -2 7 2 10 279
10 856 0 468 1 859 3 868 3 14 54 15 466 15 l462 0 203 -400 c112 -221 254
-500 316 -621 62 -121 168 -330 235 -465 68 -135 125 -247 127 -249 5 -7 941
-7 958 -1 13 4 12 9 -1 35 -9 17 -68 131 -131 255 -64 124 -155 302 -203 395
-104 203 -248 483 -435 850 -76 149 -151 294 -167 324 -15 30 -28 55 -28 57 0
2 42 24 93 50 196 99 362 232 477 386 74 98 158 268 171 343 1 6 6 21 11 35
46 122 58 478 23 675 -32 176 -102 348 -194 475 -87 121 -262 258 -431 338
-76 36 -268 103 -331 116 -13 3 -33 7 -44 10 -78 18 -238 47 -290 52 -16 2
-50 5 -75 8 -25 3 -74 8 -110 11 -36 3 -87 8 -115 11 -27 4 -458 7 -957 9
l-908 3 0 -2219z m1682 1527 c91 -3 172 -8 180 -10 7 -3 33 -7 58 -10 47 -5
80 -12 108 -20 9 -3 28 -7 42 -10 109 -20 264 -102 343 -180 107 -107 158
-233 162 -406 6 -211 -42 -347 -164 -469 -91 -91 -281 -174 -450 -197 -25 -3
-55 -8 -66 -10 -73 -14 -911 -28 -995 -16 l-25 4 0 656 c1 362 4 662 7 667 7
11 513 12 800 1z"/>
</g>
</svg>
