<svg width="9" height="9" viewBox="0 0 9 9" fill="none" xmlns="http://www.w3.org/2000/svg">
<g clip-path="url(#clip0_1614_226)">
<path d="M0.915478 8.86765C0.698595 8.88026 0.485298 8.80816 0.320567 8.66655C-0.00431651 8.33974 -0.00431651 7.8119 0.320567 7.48509L7.43444 0.371184C7.77235 0.0549932 8.30258 0.0725701 8.61877 0.410477C8.9047 0.716045 8.92136 1.18571 8.65779 1.51076L1.502 8.66655C1.33939 8.80612 1.12952 8.87808 0.915478 8.86765Z" fill="white"/>
<path d="M8.02101 8.86767C7.80121 8.86673 7.59053 8.77948 7.43446 8.62469L0.32056 1.51075C0.0195727 1.15927 0.0604935 0.630309 0.411977 0.329294C0.725684 0.0606456 1.18834 0.0606456 1.50202 0.329294L8.65781 7.4432C8.99564 7.75947 9.0131 8.28973 8.69683 8.62755C8.68425 8.64099 8.67125 8.65399 8.65781 8.66657C8.48259 8.81894 8.252 8.89176 8.02101 8.86767Z" fill="white"/>
</g>
<defs>
<clipPath id="clip0_1614_226">
<rect width="8.84615" height="8.84615" fill="white" transform="translate(0.0769043 0.0769043)"/>
</clipPath>
</defs>
</svg>
