<svg width="19" height="19" viewBox="0 0 19 19" fill="none" xmlns="http://www.w3.org/2000/svg">
<g clip-path="url(#clip0)">
<path d="M17.0208 10.6875C18.1117 10.6875 19 9.79925 19 8.70835V2.375C19 1.2841 18.1117 0.395845 17.0208 0.395845H14.6458C14.2001 0.395845 13.7901 0.54625 13.4583 0.796442V10.6875H17.0208Z" fill="#383838"/>
<path d="M-0.00014782 7.71874C-0.00014782 8.19452 0.188256 8.63787 0.515226 8.96484C0.145506 9.36937 -0.0428991 9.91169 0.00857162 10.4761C0.101197 11.4823 1.00767 12.2708 2.07323 12.2708H6.96335C6.7211 13.0063 6.3332 14.3545 6.3332 15.4375C6.3332 17.1546 7.79223 18.6041 8.7082 18.6041C9.53073 18.6041 10.1182 18.141 10.1435 18.122C10.2369 18.0468 10.2915 17.9328 10.2915 17.8125V15.128L12.5715 10.1887L12.6665 10.1405V1.65537C12.0221 1.35137 11.2067 1.18749 10.6874 1.18749H3.42063C2.55851 1.18749 1.80404 1.76859 1.62673 2.57052C1.5357 2.983 1.58873 3.39862 1.77001 3.75962C1.18498 4.05412 0.791506 4.65659 0.791506 5.34374C0.791506 5.62399 0.855631 5.89237 0.977535 6.1354C0.392507 6.4299 -0.00014782 7.03237 -0.00014782 7.71874Z" fill="#383838"/>
</g>
<defs>
<clipPath id="clip0">
<rect width="19" height="19" fill="white" transform="translate(19 19) rotate(180)"/>
</clipPath>
</defs>
</svg>
