<svg width="19" height="19" viewBox="0 0 19 19" fill="none" xmlns="http://www.w3.org/2000/svg">
<g clip-path="url(#clip0)">
<path d="M1.97915 8.3125C0.88825 8.3125 0 9.20075 0 10.2917V16.625C0 17.7159 0.88825 18.6042 1.97915 18.6042H4.35415C4.79987 18.6042 5.20993 18.4537 5.54165 18.2036V8.3125H1.97915Z" fill="#383838"/>
<path d="M19.0001 11.2813C19.0001 10.8055 18.8117 10.3621 18.4848 10.0352C18.8545 9.63063 19.0429 9.08831 18.9914 8.52388C18.8988 7.51766 17.9923 6.72916 16.9268 6.72916H12.0366C12.2789 5.99369 12.6668 4.64551 12.6668 3.56251C12.6668 1.84538 11.2078 0.395851 10.2918 0.395851C9.46927 0.395851 8.88183 0.858976 8.85652 0.877976C8.76312 0.953197 8.7085 1.0672 8.7085 1.18751V3.87203L6.4285 8.81126L6.3335 8.85954V17.3446C6.9779 17.6486 7.7933 17.8125 8.31265 17.8125H15.5794C16.4415 17.8125 17.196 17.2314 17.3733 16.4295C17.4643 16.017 17.4113 15.6014 17.23 15.2404C17.815 14.9459 18.2085 14.3434 18.2085 13.6563C18.2085 13.376 18.1444 13.1076 18.0225 12.8646C18.6075 12.5701 19.0001 11.9676 19.0001 11.2813Z" fill="#383838"/>
</g>
<defs>
<clipPath id="clip0">
<rect width="19" height="19" fill="white"/>
</clipPath>
</defs>
</svg>
