<svg width="78" height="78" viewBox="0 0 78 78" fill="none" xmlns="http://www.w3.org/2000/svg">
<path d="M17.5732 61.9839C9.30957 55.3993 4.57031 45.567 4.57031 35.0084C4.57031 24.4501 9.30927 14.618 17.5725 8.03335C18.5596 7.2468 18.722 5.80898 17.9354 4.8221C17.149 3.83507 15.7112 3.67252 14.7242 4.45907C5.36677 11.9158 0 23.0506 0 35.0084C0 46.9666 5.36692 58.1016 14.7249 65.5584C15.7114 66.3446 17.1493 66.1827 17.9362 65.1953C18.7226 64.2081 18.5602 62.7705 17.5732 61.9839Z" fill="black"/>
<path d="M63.2761 4.459C62.2889 3.6726 60.8514 3.835 60.0649 4.82204C59.2783 5.80907 59.4407 7.24674 60.4277 8.03329C68.6907 14.618 73.4297 24.45 73.4297 35.0083C73.4297 45.5667 68.6907 55.3986 60.4276 61.9832C59.4406 62.7698 59.2782 64.2076 60.0647 65.1945C60.8516 66.1821 62.2895 66.3435 63.276 65.5575C72.6332 58.1008 78 46.966 78 35.0083C78 23.0507 72.6332 11.9159 63.2761 4.459Z" fill="black"/>
<path d="M25.1878 52.4455C19.8304 48.1843 16.7578 41.8287 16.7578 35.0086C16.7578 28.1883 19.8304 21.8326 25.1879 17.5713C26.1756 16.7857 26.3395 15.3481 25.5537 14.3603C24.7679 13.3725 23.3304 13.2088 22.3427 13.9944C15.889 19.1279 12.1875 26.7872 12.1875 35.0086C12.1875 43.2298 15.889 50.889 22.3426 56.0224C23.331 56.8083 24.7682 56.6438 25.5535 55.6565C26.3392 54.6688 26.1754 53.2312 25.1878 52.4455Z" fill="black"/>
<path d="M55.6574 13.9948C54.6696 13.2094 53.2323 13.373 52.4465 14.3608C51.6608 15.3484 51.8246 16.7861 52.8123 17.5717C58.1696 21.8329 61.2422 28.1884 61.2422 35.0087C61.2422 41.829 58.1696 48.1846 52.8121 52.4458C51.8245 53.2314 51.6605 54.6689 52.4463 55.6567C53.2324 56.645 54.6702 56.8078 55.6573 56.0227C62.111 50.8891 65.8125 43.2299 65.8125 35.0087C65.8125 26.7874 62.111 19.1282 55.6574 13.9948Z" fill="black"/>
<path d="M39 23.6133C32.6998 23.6133 27.5742 28.7389 27.5742 35.0391C27.5742 40.5568 31.5059 45.1733 36.7148 46.235V71.7539C36.7148 73.0159 37.738 74.0391 39 74.0391C40.262 74.0391 41.2852 73.0159 41.2852 71.7539V46.235C46.4941 45.1734 50.4258 40.557 50.4258 35.0391C50.4258 28.7389 45.3002 23.6133 39 23.6133Z" fill="black"/>
</svg>
