<svg width="75" height="75" viewBox="0 0 75 75" fill="none" xmlns="http://www.w3.org/2000/svg">
<path d="M31.984 43.0164C30.4854 41.5261 29.2973 39.7533 28.4884 37.8007C27.6796 35.8481 27.2661 33.7545 27.2719 31.641C27.2756 30.3527 27.433 29.0694 27.7406 27.8184L15.7195 39.8441L35.1563 59.2809L47.182 47.2551C45.9313 47.5652 44.648 47.7245 43.3594 47.7297C41.2458 47.7353 39.1522 47.3216 37.1996 46.5125C35.247 45.7035 33.4742 44.5152 31.984 43.0164Z" fill="black"/>
<path d="M11.0252 44.5293L14.0551 41.4994L33.4888 60.9331L30.4589 63.963L11.0252 44.5293Z" fill="black"/>
<path d="M4.00079 58.5939L16.4063 70.9994L25.2961 62.1096L12.8906 49.7041L4.00079 58.5939ZM16.0629 61.2811L18.4067 63.6248L16.7496 65.2818L14.4059 62.9381L16.0629 61.2811ZM12.0621 60.5943L9.71837 58.2506L11.3754 56.5936L13.7192 58.9373L12.0621 60.5943Z" fill="black"/>
<path d="M44.5312 35.1562C47.1201 35.1562 49.2188 33.0576 49.2188 30.4688C49.2188 27.8799 47.1201 25.7812 44.5312 25.7812C41.9424 25.7812 39.8438 27.8799 39.8438 30.4688C39.8438 33.0576 41.9424 35.1562 44.5312 35.1562Z" fill="black"/>
<path d="M70.9992 21.0942L69.1406 19.2356L62.9379 25.4383L61.2809 23.7813L67.4836 17.5786L63.2812 13.3762L57.0785 19.579L55.4215 17.9219L61.6242 11.7192L57.4219 7.51685L51.2191 13.7196L49.5621 12.0626L55.7648 5.85982L53.9062 4.00123C53.5883 3.70425 53.1695 3.53906 52.7344 3.53906C52.2993 3.53906 51.8805 3.70425 51.5625 4.00123L33.641 21.9227C31.0635 24.5002 29.6155 27.996 29.6155 31.6411C29.6155 35.2862 31.0635 38.782 33.641 41.3594C36.2185 43.9369 39.7143 45.3849 43.3594 45.3849C47.0045 45.3849 50.5003 43.9369 53.0777 41.3594L70.9992 23.4379C71.3098 23.127 71.4842 22.7055 71.4842 22.2661C71.4842 21.8266 71.3098 21.4051 70.9992 21.0942ZM44.5312 37.5004C43.1406 37.5004 41.7812 37.0881 40.6249 36.3155C39.4686 35.5429 38.5674 34.4447 38.0352 33.1599C37.503 31.8751 37.3638 30.4614 37.6351 29.0975C37.9064 27.7335 38.5761 26.4807 39.5594 25.4974C40.5427 24.514 41.7956 23.8444 43.1595 23.573C44.5234 23.3017 45.9372 23.441 47.222 23.9732C48.5068 24.5053 49.6049 25.4066 50.3775 26.5628C51.1501 27.7191 51.5625 29.0785 51.5625 30.4692C51.5606 32.3334 50.8193 34.1208 49.501 35.439C48.1828 36.7572 46.3955 37.4986 44.5312 37.5004Z" fill="black"/>
</svg>
