<svg width="67" height="67" viewBox="0 0 67 67" fill="none" xmlns="http://www.w3.org/2000/svg">
<g clip-path="url(#clip0_6_214)">
<path d="M14.7835 35.015L21.1419 38.2389H45.858L52.2164 35.015V29.6211H14.7835V35.015ZM21.1588 31.6402H46.1397C47.2233 31.6402 48.1026 32.5189 48.1026 33.6031C48.1026 34.6868 47.2233 35.566 46.1397 35.566H21.1588C20.0751 35.566 19.1959 34.6868 19.1959 33.6031C19.1959 32.5189 20.0751 31.6402 21.1588 31.6402Z" fill="black"/>
<path d="M61.1113 17.9277H5.88867C2.64172 17.9277 0 20.5695 0 23.8164V43.3896C0 46.6371 2.64172 49.2783 5.88867 49.2783H61.1113C64.3583 49.2783 67 46.6371 67 43.3896V23.8164C67 20.5695 64.3583 17.9277 61.1113 17.9277ZM56.1423 27.6584V36.2204C56.1423 36.9601 55.7267 37.6369 55.0673 37.9712L47.2147 41.9527C46.9397 42.0922 46.6355 42.1648 46.3273 42.1648H20.6732C20.3645 42.1648 20.0603 42.0922 19.7853 41.9527L11.9327 37.9712C11.2733 37.6369 10.8577 36.9601 10.8577 36.2204V27.6584C10.8577 26.5747 11.7365 25.6955 12.8206 25.6955H54.1794C55.2635 25.6955 56.1423 26.5747 56.1423 27.6584Z" fill="black"/>
</g>
<defs>
<clipPath id="clip0_6_214">
<rect width="67" height="67" fill="white"/>
</clipPath>
</defs>
</svg>
