<svg width="105" height="105" viewBox="0 0 105 105" fill="none" xmlns="http://www.w3.org/2000/svg">
<path d="M101.432 13.7539H3.56815C1.59756 13.7539 0 15.3515 0 17.3221V70.5134C0 72.484 1.59756 74.0815 3.56815 74.0815H101.432C103.402 74.0815 105 72.484 105 70.5134V17.3221C105 15.3515 103.402 13.7539 101.432 13.7539Z" fill="black"/>
<path d="M72.8894 85.0562H60.7757V80.2715H44.2242V85.0562H32.1103C30.4009 85.0562 29.015 86.4419 29.015 88.1514C29.015 89.8607 30.4007 91.2466 32.1103 91.2466H72.8894C74.5988 91.2466 75.9847 89.8609 75.9847 88.1514C75.9847 86.4421 74.599 85.0562 72.8894 85.0562Z" fill="black"/>
<circle cx="75.5" cy="71.5" r="8.5" fill="white"/>
<circle cx="75.5" cy="71.5" r="5.5" fill="#E44C0C"/>
</svg>
