<svg width="86" height="86" viewBox="0 0 86 86" fill="none" xmlns="http://www.w3.org/2000/svg">
<path d="M10.9306 53.4136C9.51256 53.4136 8.43756 54.4828 8.43756 55.9028V63.81C8.43756 65.2281 9.51256 66.2983 10.9306 66.2983H52.1733C53.5933 66.2983 54.6616 65.229 54.6616 63.81V55.9028C54.6616 54.4828 53.5933 53.4136 52.1733 53.4136H10.9306ZM43.4004 55.1517C43.9575 55.146 44.4152 55.6056 44.4056 56.1675L44.3999 59.8349C44.3903 61.1641 42.4095 61.1603 42.4095 59.8349L42.4143 56.1579C42.4095 55.6047 42.8528 55.1613 43.4004 55.1517ZM46.0234 56.3252H46.0387C46.3072 56.3309 46.5614 56.4408 46.741 56.6386C48.0836 57.9936 48.482 60.0279 47.7568 61.7948C47.0239 63.5606 45.3182 64.7216 43.4109 64.7216C41.5046 64.7216 39.7884 63.5606 39.0564 61.7948C38.335 60.027 38.7344 57.9926 40.077 56.6386C40.2566 56.4484 40.4993 56.3433 40.7583 56.3366C41.6641 56.3166 42.1285 57.4002 41.4864 58.0366C40.7038 58.8297 40.4706 60.0079 40.893 61.0427C41.3211 62.0728 42.3111 62.7446 43.4109 62.7446C44.5117 62.7446 45.5017 62.0728 45.925 61.0427C46.3483 60.0069 46.1151 58.8297 45.3277 58.0366C44.6703 57.4212 45.1175 56.3108 46.0234 56.3252ZM14.6984 57.8636C15.803 57.8636 16.7002 58.7599 16.7002 59.8645C16.7002 60.9634 15.8039 61.8655 14.6984 61.8655C13.589 61.8655 12.6927 60.9749 12.6927 59.8645C12.6927 58.759 13.589 57.8636 14.6984 57.8636ZM21.9252 57.8636C23.0299 57.8636 23.9252 58.7599 23.9252 59.8645C23.9252 60.9749 23.0289 61.8655 21.9252 61.8655C20.8149 61.8655 19.9243 60.9692 19.9243 59.8645C19.9243 58.7599 20.8206 57.8636 21.9252 57.8636Z" fill="#5D80C0"/>
<path d="M66.3891 16.7002C63.8646 16.7002 61.7996 18.7508 61.7996 21.2744V55.1766H80.6623L80.6565 21.2744C80.6565 18.7546 78.5859 16.7002 76.0622 16.7002H66.3891ZM67.2988 23.9557H67.3399H69.0915C70.4092 23.9557 70.4092 25.9414 69.0915 25.9471H67.3399C66.0155 25.9681 65.9744 23.9863 67.2988 23.9557ZM73.3313 23.9557H73.3714H75.1182C76.4416 23.9557 76.4416 25.9414 75.1182 25.9471H73.3714C72.047 25.9681 72.0078 23.9863 73.3313 23.9557ZM69.165 28.3962C69.7279 28.4019 70.176 28.8682 70.156 29.4244C70.1311 29.9882 69.6476 30.421 69.0915 30.3799H67.3399C66.0748 30.3799 65.9811 28.5214 67.2405 28.4019H67.3399H69.0915C69.1163 28.4019 69.1412 28.3962 69.165 28.3962ZM75.1927 28.3962C75.7546 28.4019 76.2037 28.8682 76.1826 29.4244C76.1626 29.9882 75.681 30.421 75.1172 30.3799H73.3704C72.1062 30.3799 72.0126 28.5214 73.2711 28.4019H73.3704H75.1172C75.144 28.4019 75.1678 28.3962 75.1927 28.3962ZM67.3399 32.8395H69.0915C69.6486 32.8156 70.1149 33.2686 70.1149 33.8247C70.1149 34.3923 69.6476 34.8433 69.0915 34.8252H67.3399C66.0652 34.7774 66.0652 32.8902 67.3399 32.8395ZM73.3714 32.8395H75.1182C75.6848 32.8156 76.154 33.2686 76.154 33.8247C76.154 34.3923 75.6848 34.8433 75.1182 34.8252H73.3714C72.0967 34.7774 72.0967 32.8902 73.3714 32.8395ZM71.23 39.5791C74.2161 39.5791 76.6556 42.0224 76.6556 44.999C76.6556 47.9851 74.2171 50.4284 71.23 50.4284C68.2496 50.4284 65.8063 47.9851 65.8063 44.999C65.8072 42.0224 68.2506 39.5791 71.23 39.5791Z" fill="#262833"/>
<path d="M71.23 41.5591C69.3246 41.5591 67.7909 43.088 67.7909 44.9991C67.7909 46.9102 69.3236 48.4429 71.23 48.4429C73.1411 48.4429 74.67 46.9102 74.67 44.9991C74.67 43.088 73.1411 41.5591 71.23 41.5591Z" fill="#5D80C0"/>
<path d="M61.7996 57.167V64.7608C61.7996 67.2892 63.8645 69.3408 66.3891 69.3408H76.0784C78.602 69.3408 80.6622 67.2901 80.6622 64.7608V57.167H61.7996Z" fill="#262833"/>
<path d="M14.9324 37.3193C13.4743 37.3193 12.2798 38.0064 11.4733 38.9466C10.6668 39.8821 10.17 41.0422 9.76575 42.207L5.7142 53.8772C5.66929 53.9966 5.6454 54.1314 5.65113 54.2613C5.48677 54.7878 5.396 55.3287 5.396 55.9078V63.8169C5.396 66.8556 7.88044 69.341 10.9306 69.341H52.1733C55.2196 69.341 57.7031 66.8546 57.7031 63.8169V55.9078C57.7031 55.3296 57.6133 54.7783 57.4489 54.2613C57.4537 54.1266 57.4336 53.9966 57.384 53.8772L53.3381 42.207C52.9358 41.0422 52.4323 39.8812 51.6267 38.9466C50.826 38.0064 49.6248 37.3193 48.1734 37.3193H14.9324ZM10.9306 52.3636H52.1733C54.1551 52.3636 55.7213 53.9278 55.7213 55.9078V63.8169C55.7213 65.7911 54.1542 67.3591 52.1733 67.3591H10.9306C8.95066 67.3591 7.3826 65.7911 7.3826 63.8169V55.9078C7.3826 53.9278 8.95066 52.3636 10.9306 52.3636Z" fill="#262833"/>
</svg>
