<svg width="105" height="105" viewBox="0 0 105 105" fill="none" xmlns="http://www.w3.org/2000/svg">
<path d="M101.432 13.7537H3.56815C1.59756 13.7537 0 15.3512 0 17.3218V70.5131C0 72.4837 1.59756 74.0813 3.56815 74.0813H101.432C103.402 74.0813 105 72.4837 105 70.5131V17.3218C105 15.3512 103.402 13.7537 101.432 13.7537Z" fill="black"/>
<path d="M72.8896 85.0562H60.7758V80.2715H44.2243V85.0562H32.1104C30.4011 85.0562 29.0151 86.4419 29.0151 88.1514C29.0151 89.8607 30.4009 91.2466 32.1104 91.2466H72.8896C74.5989 91.2466 75.9848 89.8609 75.9848 88.1514C75.9848 86.4421 74.5991 85.0562 72.8896 85.0562Z" fill="black"/>
<path d="M42 30L64 52" stroke="white" stroke-width="4"/>
<path d="M64 30L42 52" stroke="white" stroke-width="4"/>
</svg>
