<svg width="44" height="44" viewBox="0 0 44 44" fill="none" xmlns="http://www.w3.org/2000/svg">
<g clip-path="url(#clip0_2_117)">
<path d="M15.1724 0H4.55172C2.03788 0 0 2.03788 0 4.55172V15.1724C0 17.6863 2.03788 19.7241 4.55172 19.7241H15.1724C17.6863 19.7241 19.7241 17.6863 19.7241 15.1724V4.55172C19.7241 2.03788 17.6863 0 15.1724 0Z" fill="#FF5364"/>
<path d="M3.0345 6.8276C2.61552 6.8276 2.27588 6.48796 2.27588 6.06898V4.55174C2.27588 3.29482 3.29482 2.27588 4.55174 2.27588H7.58622C8.0052 2.27588 8.34484 2.61552 8.34484 3.0345C8.34484 3.45347 8.0052 3.79312 7.58622 3.79312H4.55174C4.13277 3.79312 3.79312 4.13277 3.79312 4.55174V6.06898C3.79312 6.48796 3.45347 6.8276 3.0345 6.8276Z" fill="#FB7B76"/>
<path d="M12.1379 3.79312H10.6207C10.2017 3.79312 9.86206 3.45347 9.86206 3.0345C9.86206 2.61552 10.2017 2.27588 10.6207 2.27588H12.1379C12.5569 2.27588 12.8965 2.61552 12.8965 3.0345C12.8965 3.45347 12.5569 3.79312 12.1379 3.79312Z" fill="#FB7B76"/>
<path d="M15.9311 17.4484H14.4138C13.9949 17.4484 13.6552 17.1087 13.6552 16.6898C13.6552 16.2708 13.9949 15.9312 14.4138 15.9312H15.9311C16.35 15.9312 16.6897 16.2708 16.6897 16.6898C16.6897 17.1087 16.35 17.4484 15.9311 17.4484Z" fill="#FB7B76"/>
<path d="M39.4483 0H28.8276C26.3138 0 24.2759 2.03788 24.2759 4.55172V15.1724C24.2759 17.6863 26.3138 19.7241 28.8276 19.7241H39.4483C41.9621 19.7241 44 17.6863 44 15.1724V4.55172C44 2.03788 41.9621 0 39.4483 0Z" fill="#894B9D"/>
<path d="M40.2069 17.4484H38.6897C38.2707 17.4484 37.931 17.1087 37.931 16.6898C37.931 16.2708 38.2707 15.9312 38.6897 15.9312H40.2069C40.6259 15.9312 40.9655 16.2708 40.9655 16.6898C40.9655 17.1087 40.6259 17.4484 40.2069 17.4484Z" fill="#B49ACA"/>
<path d="M15.1724 24.2759H4.55172C2.03788 24.2759 0 26.3138 0 28.8276V39.4483C0 41.9621 2.03788 44 4.55172 44H15.1724C17.6863 44 19.7241 41.9621 19.7241 39.4483V28.8276C19.7241 26.3138 17.6863 24.2759 15.1724 24.2759Z" fill="#24AE5F"/>
<path d="M3.0345 31.1035C2.61552 31.1035 2.27588 30.7638 2.27588 30.3449V28.8276C2.27588 27.5707 3.29482 26.5518 4.55174 26.5518H7.58622C8.0052 26.5518 8.34484 26.8914 8.34484 27.3104C8.34484 27.7294 8.0052 28.069 7.58622 28.069H4.55174C4.13277 28.069 3.79312 28.4086 3.79312 28.8276V30.3449C3.79312 30.7638 3.45347 31.1035 3.0345 31.1035Z" fill="#81CCB8"/>
<path d="M12.1379 28.069H10.6207C10.2017 28.069 9.86206 27.7294 9.86206 27.3104C9.86206 26.8914 10.2017 26.5518 10.6207 26.5518H12.1379C12.5569 26.5518 12.8965 26.8914 12.8965 27.3104C12.8965 27.7294 12.5569 28.069 12.1379 28.069Z" fill="#81CCB8"/>
<path d="M27.3103 6.8276C26.8913 6.8276 26.5517 6.48796 26.5517 6.06898V4.55174C26.5517 3.29482 27.5706 2.27588 28.8276 2.27588H31.862C32.281 2.27588 32.6207 2.61552 32.6207 3.0345C32.6207 3.45347 32.281 3.79312 31.862 3.79312H28.8276C28.4086 3.79312 28.0689 4.13277 28.0689 4.55174V6.06898C28.0689 6.48796 27.7293 6.8276 27.3103 6.8276Z" fill="#B49ACA"/>
<path d="M36.4138 3.79312H34.8966C34.4776 3.79312 34.1379 3.45347 34.1379 3.0345C34.1379 2.61552 34.4776 2.27588 34.8966 2.27588H36.4138C36.8328 2.27588 37.1724 2.61552 37.1724 3.0345C37.1724 3.45347 36.8328 3.79312 36.4138 3.79312Z" fill="#B49ACA"/>
<path d="M15.931 41.724H14.4138C13.9948 41.724 13.6552 41.3844 13.6552 40.9654C13.6552 40.5464 13.9948 40.2068 14.4138 40.2068H15.931C16.35 40.2068 16.6896 40.5464 16.6896 40.9654C16.6896 41.3844 16.35 41.724 15.931 41.724Z" fill="#81CCB8"/>
<path d="M39.4483 24.2759H28.8276C26.3138 24.2759 24.2759 26.3138 24.2759 28.8276V39.4483C24.2759 41.9621 26.3138 44 28.8276 44H39.4483C41.9621 44 44 41.9621 44 39.4483V28.8276C44 26.3138 41.9621 24.2759 39.4483 24.2759Z" fill="#F29C1F"/>
<path d="M27.3103 31.1035C26.8913 31.1035 26.5517 30.7638 26.5517 30.3449V28.8276C26.5517 27.5707 27.5706 26.5518 28.8276 26.5518H31.862C32.281 26.5518 32.6207 26.8914 32.6207 27.3104C32.6207 27.7294 32.281 28.069 31.862 28.069H28.8276C28.4086 28.069 28.0689 28.4086 28.0689 28.8276V30.3449C28.0689 30.7638 27.7293 31.1035 27.3103 31.1035Z" fill="#F3D55B"/>
<path d="M36.4138 28.069H34.8966C34.4776 28.069 34.1379 27.7294 34.1379 27.3104C34.1379 26.8914 34.4776 26.5518 34.8966 26.5518H36.4138C36.8328 26.5518 37.1724 26.8914 37.1724 27.3104C37.1724 27.7294 36.8328 28.069 36.4138 28.069Z" fill="#F3D55B"/>
<path d="M40.2069 41.724H38.6897C38.2707 41.724 37.931 41.3844 37.931 40.9654C37.931 40.5464 38.2707 40.2068 38.6897 40.2068H40.2069C40.6259 40.2068 40.9655 40.5464 40.9655 40.9654C40.9655 41.3844 40.6259 41.724 40.2069 41.724Z" fill="#F3D55B"/>
</g>
<defs>
<clipPath id="clip0_2_117">
<rect width="44" height="44" fill="white"/>
</clipPath>
</defs>
</svg>
