<svg width="105" height="105" viewBox="0 0 105 105" fill="none" xmlns="http://www.w3.org/2000/svg">
<path d="M101.432 13.7539H3.56815C1.59756 13.7539 0 15.3515 0 17.3221V70.5134C0 72.484 1.59756 74.0815 3.56815 74.0815H101.432C103.402 74.0815 105 72.484 105 70.5134V17.3221C105 15.3515 103.402 13.7539 101.432 13.7539Z" fill="black"/>
<path d="M72.8894 85.0562H60.7757V80.2715H44.2242V85.0562H32.1103C30.4009 85.0562 29.015 86.4419 29.015 88.1514C29.015 89.8607 30.4007 91.2466 32.1103 91.2466H72.8894C74.5988 91.2466 75.9847 89.8609 75.9847 88.1514C75.9847 86.4421 74.599 85.0562 72.8894 85.0562Z" fill="black"/>
<path d="M38 45C38 45.6903 37.4403 46.25 36.75 46.25C36.0597 46.25 35.5 45.6903 35.5 45C35.5 35.3503 43.3503 27.5 53 27.5C57.8097 27.5 62.26 29.4166 65.5 32.7166V28.75C65.5 28.0597 66.0597 27.5 66.75 27.5C67.4403 27.5 68 28.0597 68 28.75V36.25C68 36.9403 67.4403 37.5 66.75 37.5H59.25C58.5597 37.5 58 36.9403 58 36.25C58 35.5597 58.5597 35 59.25 35H64.2212C61.4166 31.845 57.3819 30 53 30C44.7291 30 38 36.7291 38 45ZM69.25 43.75C68.5597 43.75 68 44.3097 68 45C68 53.2709 61.2709 60 53 60C48.6181 60 44.5834 58.155 41.7787 55H46.75C47.4403 55 48 54.4403 48 53.75C48 53.0597 47.4403 52.5 46.75 52.5H39.25C38.5597 52.5 38 53.0597 38 53.75V61.25C38 61.9403 38.5597 62.5 39.25 62.5C39.9403 62.5 40.5 61.9403 40.5 61.25V57.2834C43.74 60.5834 48.1903 62.5 53 62.5C62.6497 62.5 70.5 54.6497 70.5 45C70.5 44.3097 69.9403 43.75 69.25 43.75Z" fill="white"/>
</svg>
