<svg width="105" height="105" viewBox="0 0 105 105" fill="none" xmlns="http://www.w3.org/2000/svg">
<path d="M101.432 13.7539H3.56815C1.59756 13.7539 0 15.3515 0 17.3221V70.5134C0 72.484 1.59756 74.0815 3.56815 74.0815H101.432C103.402 74.0815 105 72.484 105 70.5134V17.3221C105 15.3515 103.402 13.7539 101.432 13.7539Z" fill="black"/>
<path d="M72.8894 85.0562H60.7757V80.2715H44.2242V85.0562H32.1103C30.4009 85.0562 29.015 86.4419 29.015 88.1514C29.015 89.8607 30.4007 91.2466 32.1103 91.2466H72.8894C74.5988 91.2466 75.9847 89.8609 75.9847 88.1514C75.9847 86.4421 74.599 85.0562 72.8894 85.0562Z" fill="black"/>
<path d="M55.0833 23C50.9135 23 46.8372 24.2365 43.3701 26.5532C39.9029 28.8699 37.2006 32.1626 35.6049 36.0151C34.0091 39.8676 33.5916 44.1067 34.4051 48.1965C35.2186 52.2863 37.2266 56.0429 40.1752 58.9915C43.1237 61.9401 46.8804 63.9481 50.9702 64.7616C55.06 65.5751 59.2991 65.1575 63.1516 63.5618C67.0041 61.966 70.2968 59.2637 72.6135 55.7966C74.9302 52.3295 76.1667 48.2532 76.1667 44.0833C76.1682 41.3142 75.6239 38.5719 74.5649 36.0133C73.5059 33.4547 71.953 31.1299 69.9949 29.1718C68.0368 27.2137 65.712 25.6608 63.1534 24.6018C60.5947 23.5428 57.8525 22.9985 55.0833 23ZM53.1667 32.5833C53.1667 32.075 53.3686 31.5875 53.7281 31.228C54.0875 30.8686 54.575 30.6667 55.0833 30.6667C55.5917 30.6667 56.0792 30.8686 56.4386 31.228C56.7981 31.5875 57 32.075 57 32.5833V40.25C57 40.7583 56.7981 41.2458 56.4386 41.6053C56.0792 41.9647 55.5917 42.1667 55.0833 42.1667C54.575 42.1667 54.0875 41.9647 53.7281 41.6053C53.3686 41.2458 53.1667 40.7583 53.1667 40.25V32.5833ZM64.5708 53.5708C62.0546 56.0871 58.6418 57.5007 55.0833 57.5007C51.5248 57.5007 48.1121 56.0871 45.5958 53.5708C43.0796 51.0546 41.666 47.6418 41.666 44.0833C41.666 40.5248 43.0796 37.1121 45.5958 34.5958C45.955 34.2389 46.4407 34.0385 46.9471 34.0385C47.4534 34.0385 47.9392 34.2389 48.2983 34.5958C48.4803 34.7707 48.625 34.9806 48.7238 35.2128C48.8227 35.445 48.8737 35.6947 48.8737 35.9471C48.8737 36.1994 48.8227 36.4492 48.7238 36.6814C48.625 36.9136 48.4803 37.1234 48.2983 37.2983C46.9605 38.6396 46.0502 40.3472 45.6824 42.2055C45.3146 44.0638 45.5058 45.9895 46.2318 47.7392C46.9579 49.4889 48.1862 50.9842 49.7616 52.0361C51.3371 53.0881 53.189 53.6495 55.0833 53.6495C56.9777 53.6495 58.8296 53.0881 60.405 52.0361C61.9805 50.9842 63.2088 49.4889 63.9349 47.7392C64.6609 45.9895 64.8521 44.0638 64.4843 42.2055C64.1165 40.3472 63.2062 38.6396 61.8683 37.2983C61.6864 37.1234 61.5417 36.9136 61.4428 36.6814C61.344 36.4492 61.293 36.1994 61.293 35.9471C61.293 35.6947 61.344 35.445 61.4428 35.2128C61.5417 34.9806 61.6864 34.7707 61.8683 34.5958C62.2275 34.2389 62.7132 34.0385 63.2196 34.0385C63.726 34.0385 64.2117 34.2389 64.5708 34.5958C65.8168 35.8417 66.8052 37.3208 67.4796 38.9487C68.1539 40.5766 68.501 42.3213 68.501 44.0833C68.501 45.8454 68.1539 47.5901 67.4796 49.218C66.8052 50.8459 65.8168 52.325 64.5708 53.5708Z" fill="white"/>
</svg>
