<svg width="105" height="105" viewBox="0 0 105 105" fill="none" xmlns="http://www.w3.org/2000/svg">
<path d="M101.432 13.7537H3.56815C1.59756 13.7537 0 15.3512 0 17.3218V70.5131C0 72.4837 1.59756 74.0813 3.56815 74.0813H101.432C103.402 74.0813 105 72.4837 105 70.5131V17.3218C105 15.3512 103.402 13.7537 101.432 13.7537Z" fill="black"/>
<path d="M72.8894 85.0562H60.7757V80.2715H44.2242V85.0562H32.1103C30.4009 85.0562 29.015 86.4419 29.015 88.1514C29.015 89.8607 30.4007 91.2466 32.1103 91.2466H72.8894C74.5988 91.2466 75.9847 89.8609 75.9847 88.1514C75.9847 86.4421 74.599 85.0562 72.8894 85.0562Z" fill="black"/>
<path d="M17 60L17 28" stroke="white" stroke-width="5"/>
<path d="M17 60L17 28" stroke="white" stroke-width="5"/>
<path d="M32 54L32 33" stroke="white" stroke-width="5"/>
<path d="M32 54L32 33" stroke="white" stroke-width="5"/>
<path d="M46 62L46 36" stroke="white" stroke-width="5"/>
<path d="M46 62L46 36" stroke="white" stroke-width="5"/>
<path d="M46 30L46 25" stroke="white" stroke-width="5"/>
<path d="M46 30L46 25" stroke="white" stroke-width="5"/>
<path d="M89 54L89 33" stroke="white" stroke-width="5"/>
<path d="M89 54L89 33" stroke="white" stroke-width="5"/>
<path d="M75 54L75 28" stroke="white" stroke-width="5"/>
<path d="M75 54L75 28" stroke="white" stroke-width="5"/>
<path d="M61 49L61 44" stroke="white" stroke-width="5"/>
<path d="M61 49L61 44" stroke="white" stroke-width="5"/>
</svg>
