<svg width="51" height="51" viewBox="0 0 51 51" fill="none" xmlns="http://www.w3.org/2000/svg">
<g clip-path="url(#clip0_2_166)">
<path d="M25.5 10.8847C24.503 10.8847 23.6948 10.0766 23.6948 9.07949V1.80522C23.6948 0.808131 24.503 0 25.5 0C26.497 0 27.3052 0.808131 27.3052 1.80522V9.07959C27.3052 10.0766 26.497 10.8847 25.5 10.8847Z" fill="black"/>
<path opacity="0.52" d="M25.5 51C24.503 51 23.6948 50.1919 23.6948 49.1948V41.9205C23.6948 40.9234 24.503 40.1152 25.5 40.1152C26.497 40.1152 27.3052 40.9234 27.3052 41.9205V49.1948C27.3052 50.1919 26.497 51 25.5 51Z" fill="black"/>
<path opacity="0.58" d="M34.4549 49.2432C33.7431 49.2432 33.0686 48.8193 32.783 48.1199L30.0341 41.385C29.6573 40.4619 30.1002 39.4081 31.0232 39.0315C31.9456 38.6543 32.9998 39.0975 33.3767 40.0204L36.1256 46.7553C36.5024 47.6784 36.0594 48.7322 35.1365 49.1088C34.9131 49.2001 34.6821 49.2432 34.4549 49.2432Z" fill="black"/>
<path opacity="0.94" d="M31.7047 12.1031C31.4775 12.1031 31.2465 12.06 31.0232 11.9687C30.1001 11.5922 29.6573 10.5383 30.0341 9.61523L32.783 2.88034C33.1597 1.95726 34.2134 1.5131 35.1365 1.89132C36.0596 2.26784 36.5024 3.32171 36.1256 4.24479L33.3767 10.9797C33.0911 11.6793 32.4165 12.1031 31.7047 12.1031Z" fill="black"/>
<path opacity="0.46" d="M16.5449 49.2432C16.3177 49.2432 16.0867 49.2002 15.8634 49.1089C14.9403 48.7323 14.4974 47.6785 14.8742 46.7554L17.6232 40.0205C18 39.0974 19.0536 38.6543 19.9766 39.0316C20.8997 39.4081 21.3426 40.462 20.9658 41.3851L18.2168 48.1199C17.9313 48.8195 17.2567 49.2432 16.5449 49.2432Z" fill="black"/>
<path opacity="0.36" d="M3.56291 36.2601C2.8511 36.2601 2.17655 35.8367 1.89097 35.1368C1.51414 34.2137 1.95701 33.16 2.87999 32.7833L9.61478 30.0343C10.5378 29.6564 11.5915 30.0999 11.9683 31.0232C12.3452 31.9463 11.9023 33.0001 10.9793 33.3767L4.24454 36.1257C4.02121 36.2171 3.79012 36.2601 3.56291 36.2601Z" fill="black"/>
<path opacity="0.82" d="M40.7034 21.1003C39.9915 21.1003 39.317 20.6769 39.0314 19.977C38.6546 19.0539 39.0974 18.0002 40.0204 17.6235L46.7552 14.8745C47.6779 14.4969 48.7321 14.9401 49.1088 15.8635C49.4856 16.7866 49.0427 17.8404 48.1198 18.217L41.385 20.966C41.1617 21.0573 40.9306 21.1003 40.7034 21.1003Z" fill="black"/>
<path opacity="0.24" d="M10.2965 21.1C10.0693 21.1 9.83827 21.057 9.61485 20.9656L2.88006 18.2166C1.95698 17.8401 1.51422 16.7862 1.89104 15.8632C2.26776 14.9401 3.32123 14.4973 4.24461 14.8741L10.9794 17.6232C11.9025 17.9997 12.3452 19.0535 11.9684 19.9766C11.6828 20.6762 11.0082 21.1 10.2965 21.1Z" fill="black"/>
<path opacity="0.7" d="M47.4369 36.2599C47.2097 36.2599 46.9787 36.2169 46.7553 36.1255L40.0205 33.3765C39.0974 33 38.6547 31.9461 39.0315 31.023C39.4083 30.1007 40.4618 29.6575 41.3851 30.0341L48.1198 32.7831C49.0429 33.1597 49.4857 34.2135 49.1089 35.1366C48.8233 35.8361 48.1486 36.2599 47.4369 36.2599Z" fill="black"/>
<path opacity="0.88" d="M37.1109 15.694C36.6489 15.694 36.1871 15.5177 35.8345 15.1652C35.1296 14.4604 35.1295 13.3174 35.8344 12.6125L40.9781 7.46879C41.683 6.76366 42.826 6.76366 43.531 7.46879C44.2359 8.17363 44.236 9.31665 43.5311 10.0215L38.3874 15.1652C38.035 15.5177 37.5729 15.694 37.1109 15.694Z" fill="black"/>
<path opacity="0.4" d="M8.74527 44.0598C8.28328 44.0598 7.82139 43.8834 7.46888 43.5309C6.76394 42.8261 6.76384 41.6831 7.46878 40.9782L12.6124 35.8345C13.3173 35.1294 14.4604 35.1294 15.1653 35.8345C15.8702 36.5394 15.8703 37.6824 15.1654 38.3872L10.0218 43.5309C9.66925 43.8834 9.20716 44.0598 8.74527 44.0598Z" fill="black"/>
<path opacity="0.18" d="M13.8889 15.6943C13.4268 15.6943 12.965 15.518 12.6124 15.1655L7.46875 10.0217C6.76382 9.31691 6.76382 8.17389 7.46885 7.46906C8.17369 6.76422 9.31671 6.76422 10.0217 7.46906L15.1654 12.6128C15.8703 13.3176 15.8703 14.4606 15.1653 15.1655C14.8129 15.518 14.3508 15.6943 13.8889 15.6943Z" fill="black"/>
<path opacity="0.64" d="M42.2546 44.06C41.7925 44.06 41.3307 43.8837 40.9781 43.5312L35.8344 38.3875C35.1295 37.6826 35.1296 36.5396 35.8345 35.8348C36.5395 35.1299 37.6825 35.1299 38.3874 35.8348L43.5311 40.9785C44.236 41.6833 44.236 42.8264 43.531 43.5312C43.1786 43.8837 42.7165 44.06 42.2546 44.06Z" fill="black"/>
<path opacity="0.3" d="M9.07936 27.3053H1.80528C0.808292 27.3053 6.10352e-05 26.4971 6.10352e-05 25.5C6.10352e-05 24.503 0.808292 23.6948 1.80528 23.6948H9.07936C10.0763 23.6948 10.8846 24.503 10.8846 25.5C10.8846 26.4971 10.0763 27.3053 9.07936 27.3053Z" fill="black"/>
<path opacity="0.76" d="M49.1947 27.3053H41.9204C40.9234 27.3053 40.1152 26.4971 40.1152 25.5C40.1152 24.503 40.9234 23.6948 41.9204 23.6948H49.1947C50.1917 23.6948 50.9999 24.503 50.9999 25.5C50.9999 26.4971 50.1918 27.3053 49.1947 27.3053Z" fill="black"/>
</g>
<defs>
<clipPath id="clip0_2_166">
<rect width="51" height="51" fill="white"/>
</clipPath>
</defs>
</svg>
