<svg width="75" height="75" viewBox="0 0 75 75" fill="none" xmlns="http://www.w3.org/2000/svg">
<path d="M37.5 3.12501C30.7013 3.12501 24.0552 5.14106 18.4023 8.91824C12.7493 12.6954 8.34342 18.0641 5.74166 24.3453C3.13989 30.6265 2.45915 37.5381 3.78552 44.2062C5.11189 50.8743 8.38579 56.9994 13.1932 61.8068C18.0007 66.6142 24.1257 69.8881 30.7938 71.2145C37.4619 72.5409 44.3736 71.8601 50.6548 69.2584C56.936 66.6566 62.3046 62.2507 66.0818 56.5977C69.859 50.9448 71.875 44.2987 71.875 37.5C71.8775 32.9851 70.99 28.514 69.2634 24.3423C67.5368 20.1707 65.0048 16.3802 61.8123 13.1877C58.6198 9.99521 54.8294 7.46326 50.6577 5.73663C46.486 4.00999 42.0149 3.12254 37.5 3.12501ZM34.375 18.75C34.375 17.9212 34.7043 17.1263 35.2903 16.5403C35.8764 15.9542 36.6712 15.625 37.5 15.625C38.3288 15.625 39.1237 15.9542 39.7097 16.5403C40.2958 17.1263 40.625 17.9212 40.625 18.75V31.25C40.625 32.0788 40.2958 32.8737 39.7097 33.4597C39.1237 34.0458 38.3288 34.375 37.5 34.375C36.6712 34.375 35.8764 34.0458 35.2903 33.4597C34.7043 32.8737 34.375 32.0788 34.375 31.25V18.75ZM52.9688 52.9688C48.8662 57.0713 43.3019 59.3761 37.5 59.3761C31.6981 59.3761 26.1338 57.0713 22.0313 52.9688C17.9287 48.8662 15.6239 43.3019 15.6239 37.5C15.6239 31.6981 17.9287 26.1338 22.0313 22.0313C22.6168 21.4492 23.4088 21.1225 24.2344 21.1225C25.06 21.1225 25.852 21.4492 26.4375 22.0313C26.7341 22.3164 26.9701 22.6586 27.1313 23.0371C27.2925 23.4157 27.3755 23.8229 27.3755 24.2344C27.3755 24.6458 27.2925 25.0531 27.1313 25.4316C26.9701 25.8102 26.7341 26.1523 26.4375 26.4375C24.2563 28.6243 22.7721 31.4084 22.1724 34.4383C21.5727 37.4682 21.8844 40.6078 23.0682 43.4606C24.252 46.3134 26.2547 48.7514 28.8233 50.4665C31.392 52.1817 34.4114 53.0971 37.5 53.0971C40.5887 53.0971 43.608 52.1817 46.1767 50.4665C48.7454 48.7514 50.7481 46.3134 51.9319 43.4606C53.1156 40.6078 53.4274 37.4682 52.8277 34.4383C52.228 31.4084 50.7438 28.6243 48.5625 26.4375C48.2659 26.1523 48.0299 25.8102 47.8688 25.4316C47.7076 25.0531 47.6245 24.6458 47.6245 24.2344C47.6245 23.8229 47.7076 23.4157 47.8688 23.0371C48.0299 22.6586 48.2659 22.3164 48.5625 22.0313C49.148 21.4492 49.9401 21.1225 50.7656 21.1225C51.5912 21.1225 52.3833 21.4492 52.9688 22.0313C55.0003 24.0626 56.6118 26.4741 57.7113 29.1283C58.8107 31.7824 59.3766 34.6272 59.3766 37.5C59.3766 40.3729 58.8107 43.2176 57.7113 45.8717C56.6118 48.5259 55.0003 50.9375 52.9688 52.9688Z" fill="black"/>
</svg>
