<svg width="46" height="46" viewBox="0 0 46 46" fill="none" xmlns="http://www.w3.org/2000/svg">
<path d="M23 1.91675C18.8301 1.91675 14.7538 3.15327 11.2867 5.46993C7.81956 7.7866 5.11726 11.0794 3.52151 14.9318C1.92576 18.7843 1.50824 23.0235 2.32175 27.1132C3.13525 31.203 5.14324 34.9597 8.0918 37.9083C11.0404 40.8568 14.797 42.8648 18.8868 43.6783C22.9766 44.4918 27.2157 44.0743 31.0682 42.4785C34.9207 40.8828 38.2135 38.1805 40.5301 34.7134C42.8468 31.2462 44.0833 27.17 44.0833 23.0001C44.0848 20.231 43.5405 17.4887 42.4815 14.9301C41.4225 12.3714 39.8696 10.0466 37.9115 8.08855C35.9534 6.13048 33.6286 4.57755 31.07 3.51855C28.5114 2.45954 25.7691 1.91524 23 1.91675ZM21.0833 11.5001C21.0833 10.9918 21.2852 10.5042 21.6447 10.1448C22.0041 9.78535 22.4916 9.58342 23 9.58342C23.5083 9.58342 23.9958 9.78535 24.3553 10.1448C24.7147 10.5042 24.9166 10.9918 24.9166 11.5001V19.1668C24.9166 19.6751 24.7147 20.1626 24.3553 20.522C23.9958 20.8815 23.5083 21.0834 23 21.0834C22.4916 21.0834 22.0041 20.8815 21.6447 20.522C21.2852 20.1626 21.0833 19.6751 21.0833 19.1668V11.5001ZM32.4875 32.4876C29.9712 35.0038 26.5585 36.4174 23 36.4174C19.4415 36.4174 16.0287 35.0038 13.5125 32.4876C10.9962 29.9713 9.58262 26.5586 9.58262 23.0001C9.58262 19.4416 10.9962 16.0288 13.5125 13.5126C13.8716 13.1556 14.3574 12.9552 14.8637 12.9552C15.3701 12.9552 15.8559 13.1556 16.215 13.5126C16.3969 13.6875 16.5416 13.8973 16.6405 14.1295C16.7393 14.3617 16.7903 14.6115 16.7903 14.8638C16.7903 15.1162 16.7393 15.366 16.6405 15.5981C16.5416 15.8303 16.3969 16.0402 16.215 16.2151C14.8771 17.5563 13.9668 19.2639 13.599 21.1223C13.2312 22.9806 13.4224 24.9062 14.1484 26.6559C14.8745 28.4056 16.1028 29.9009 17.6783 30.9529C19.2537 32.0048 21.1056 32.5663 23 32.5663C24.8943 32.5663 26.7462 32.0048 28.3217 30.9529C29.8971 29.9009 31.1254 28.4056 31.8515 26.6559C32.5775 24.9062 32.7687 22.9806 32.4009 21.1223C32.0331 19.2639 31.1228 17.5563 29.785 16.2151C29.6031 16.0402 29.4583 15.8303 29.3595 15.5981C29.2606 15.366 29.2097 15.1162 29.2097 14.8638C29.2097 14.6115 29.2606 14.3617 29.3595 14.1295C29.4583 13.8973 29.6031 13.6875 29.785 13.5126C30.1441 13.1556 30.6299 12.9552 31.1362 12.9552C31.6426 12.9552 32.1284 13.1556 32.4875 13.5126C33.7335 14.7585 34.7219 16.2376 35.3962 17.8654C36.0705 19.4933 36.4176 21.2381 36.4176 23.0001C36.4176 24.7621 36.0705 26.5069 35.3962 28.1347C34.7219 29.7626 33.7335 31.2417 32.4875 32.4876Z" fill="#E44C0C"/>
</svg>
