<svg width="43" height="43" viewBox="0 0 43 43" fill="none" xmlns="http://www.w3.org/2000/svg">
<path d="M39.0214 21.7697C38.577 19.8392 36.9979 18.4151 35.0973 18.2031C30.5975 17.7005 26.0408 17.6981 21.5064 17.7005C16.9701 17.6981 12.4144 17.7005 7.91316 18.2031C6.01348 18.4156 4.4353 19.8396 3.99144 21.7697C3.35884 24.5187 3.35126 27.5195 3.35126 30.35C3.35126 33.1806 3.35126 36.1809 3.98385 38.9299C4.42772 40.86 6.00589 42.284 7.90653 42.4965C12.4068 42.9996 16.9625 43.0015 21.4983 42.9996C26.0346 43.002 30.5894 42.9996 35.0911 42.4965C36.9908 42.284 38.5699 40.86 39.0138 38.9299C39.6459 36.1809 39.6492 33.1806 39.6492 30.35C39.6488 27.519 39.6535 24.5187 39.0214 21.7697ZM13.7047 23.9003H11.0776V37.8601H8.63728V23.9003H6.05805V21.6136H13.7047V23.9003ZM20.3327 37.8606H18.1376V36.5399C17.2655 37.5395 16.4376 38.027 15.6309 38.027C14.9239 38.027 14.4374 37.7406 14.2178 37.1274C14.0983 36.7614 14.0243 36.1819 14.0243 35.3273V25.7549H16.2175V34.6677C16.2175 35.1818 16.2175 35.4487 16.2375 35.5208C16.2901 35.8613 16.4565 36.0339 16.7506 36.0339C17.1906 36.0339 17.6506 35.6949 18.1371 35.0068V25.7549H20.3323L20.3327 37.8606ZM28.666 34.2272C28.666 35.3468 28.5906 36.1534 28.4441 36.6665C28.151 37.567 27.5645 38.027 26.6919 38.027C25.9114 38.027 25.1583 37.5936 24.4247 36.6879V37.8611H22.2315V21.6136H24.4247V26.9196C25.1332 26.0475 25.8853 25.6065 26.6919 25.6065C27.5645 25.6065 28.1515 26.066 28.4441 26.9722C28.5916 27.4592 28.666 28.2597 28.666 29.4059V34.2272ZM36.9443 32.2075H32.5574V34.3533C32.5574 35.4739 32.924 36.0334 33.678 36.0334C34.2181 36.0334 34.5325 35.7399 34.6577 35.1538C34.6781 35.0348 34.707 34.5473 34.707 33.6676H36.9448V33.9877C36.9448 34.6947 36.9178 35.1818 36.8979 35.4008C36.8244 35.8864 36.6517 36.327 36.3857 36.7149C35.7783 37.5941 34.8782 38.0275 33.7325 38.0275C32.5849 38.0275 31.7114 37.6145 31.0774 36.7879C30.6122 36.1819 30.3732 35.2278 30.3732 33.9412V29.7013C30.3732 28.4072 30.5852 27.4607 31.0513 26.8489C31.6849 26.0205 32.5579 25.6079 33.6784 25.6079C34.7791 25.6079 35.6516 26.0205 36.2662 26.8489C36.7257 27.4607 36.9453 28.4072 36.9453 29.7013V32.2075H36.9443Z" fill="black"/>
<path d="M33.6585 27.5815C32.9254 27.5815 32.5579 28.1416 32.5579 29.2607V30.3808H34.7511V29.2607C34.7506 28.1416 34.384 27.5815 33.6585 27.5815Z" fill="black"/>
<path d="M25.5183 27.5815C25.1569 27.5815 24.7908 27.7523 24.4243 28.115V35.4933C24.7903 35.8603 25.1569 36.0339 25.5183 36.0339C26.1509 36.0339 26.4724 35.4933 26.4724 34.4002V29.2332C26.4724 28.1416 26.1509 27.5815 25.5183 27.5815Z" fill="black"/>
<path d="M26.7436 16.5846C27.5521 16.5846 28.3934 16.0934 29.2759 15.0823V16.4168H31.4928V4.18262H29.2759V13.5331C28.7846 14.2273 28.3189 14.5707 27.8755 14.5707C27.5787 14.5707 27.4042 14.3952 27.3558 14.0514C27.3288 13.9789 27.3288 13.709 27.3288 13.1898V4.18262H25.119V13.8565C25.119 14.7205 25.1929 15.3052 25.3153 15.6756C25.5382 16.2954 26.0299 16.5846 26.7436 16.5846Z" fill="black"/>
<path d="M11.3104 9.76779V16.4167H13.7687V9.76779L16.7259 0H14.2401L12.5628 6.44689L10.8177 0H8.2309C8.74921 1.52174 9.28839 3.05107 9.8067 4.57424C10.5953 6.86372 11.0875 8.58985 11.3104 9.76779Z" fill="black"/>
<path d="M20.0207 16.5847C21.1313 16.5847 21.9944 16.1669 22.6066 15.3323C23.0718 14.7201 23.2946 13.7555 23.2946 12.4552V8.17121C23.2946 6.86333 23.0722 5.90733 22.6066 5.28943C21.9944 4.45245 21.1318 4.03467 20.0207 4.03467C18.9158 4.03467 18.0532 4.45245 17.4396 5.28943C16.9687 5.90733 16.7458 6.86333 16.7458 8.17121V12.4552C16.7458 13.7555 16.9687 14.7201 17.4396 15.3323C18.0527 16.1669 18.9158 16.5847 20.0207 16.5847ZM18.9627 7.72687C18.9627 6.59493 19.3061 6.03062 20.0207 6.03062C20.7353 6.03062 21.0777 6.59446 21.0777 7.72687V12.873C21.0777 14.0049 20.7353 14.5712 20.0207 14.5712C19.3061 14.5712 18.9627 14.0049 18.9627 12.873V7.72687Z" fill="black"/>
</svg>
