<svg width="68" height="68" viewBox="0 0 68 68" fill="none" xmlns="http://www.w3.org/2000/svg">
<path d="M24.7077 10.7397H58.4131V45.5055H24.7077V10.7397Z" fill="#777777"/>
<path d="M58.4131 46.0882H24.7077C24.3861 46.0882 24.1248 45.8269 24.1248 45.5054V10.7396C24.1248 10.4174 24.3861 10.1567 24.7077 10.1567H58.4131C58.7353 10.1567 58.9959 10.4174 58.9959 10.7396V45.5054C58.9959 45.8269 58.7364 46.0882 58.4131 46.0882ZM25.2905 44.9226H57.8303V11.3224H25.2905V44.9226Z" fill="#63312D"/>
<path d="M17.9074 10.7397H51.6129V45.5055H17.9074V10.7397Z" fill="#E0E0E0"/>
<path d="M20.2387 13.071H51.6129V10.7397H17.9074V45.5067H20.2387V13.071Z" fill="white"/>
<path d="M51.6117 46.0882H17.9073C17.5858 46.0882 17.3245 45.8269 17.3245 45.5054V10.7396C17.3245 10.4174 17.5858 10.1567 17.9073 10.1567H51.6128C51.9349 10.1567 52.1956 10.4174 52.1956 10.7396V45.5054C52.1945 45.8269 51.9349 46.0882 51.6117 46.0882ZM18.4902 44.9226H51.03V11.3224H18.4902V44.9226Z" fill="#63312D"/>
<path d="M39.1454 21.8804L37.6804 23.0102L36.216 21.8804L34.7533 23.0102L33.2951 21.8804L31.8346 23.0102L30.3753 21.8804V10.7397H39.1454V21.8804Z" fill="#F8F3F3"/>
<path d="M34.7533 23.5931C34.6275 23.5931 34.5017 23.5521 34.3964 23.4718L33.2951 22.6187L32.1904 23.4718C31.9804 23.634 31.6878 23.634 31.4767 23.4718L30.0185 22.3421C29.8762 22.2316 29.7925 22.0615 29.7925 21.8805V10.7381C29.7925 10.4165 30.0538 10.1553 30.3754 10.1553H39.1443C39.4659 10.1553 39.7272 10.4165 39.7272 10.7381V21.8805C39.7272 22.0615 39.6429 22.2316 39.5012 22.3421L38.0368 23.4718C37.8273 23.634 37.5359 23.6352 37.3248 23.473L36.2149 22.6175L35.1102 23.4707C35.0049 23.5521 34.8791 23.5931 34.7533 23.5931ZM36.2149 21.2988C36.3395 21.2988 36.4659 21.3386 36.5718 21.42L37.6805 22.2749L38.5615 21.5953V11.3226H30.9582V21.5953L31.8335 22.2738L32.9383 21.42C33.1483 21.2584 33.4408 21.2584 33.652 21.42L34.7544 22.2738L35.8597 21.42C35.9645 21.3398 36.0903 21.2988 36.2149 21.2988Z" fill="#63312D"/>
<path d="M66.786 36.9379C65.7183 35.4097 63.6414 34.9868 62.0609 35.9754L46.82 45.5043H42.034C44.2787 45.5043 46.0983 43.6847 46.0983 41.4399C46.0983 39.1946 44.2787 37.375 42.034 37.375H28.615C28.615 37.375 25.4704 32.5952 19.1817 32.5952C12.892 32.5952 9.87433 37.1234 9.87433 37.1234V54.6455H49.4216L66.066 41.7057C67.5367 40.5623 67.8537 38.4661 66.786 36.9379Z" fill="white"/>
<path d="M49.4205 55.2283H9.87316C9.55102 55.2283 9.29034 54.967 9.29034 54.6455V37.1245C9.29034 37.009 9.32392 36.8974 9.38824 36.8018C9.51858 36.606 12.6552 32.0146 19.1806 32.0146C24.9165 32.0146 28.1266 35.7477 28.9137 36.7944H42.0339C44.5957 36.7944 46.6811 38.8787 46.6811 41.441C46.6811 42.8258 46.0727 44.0705 45.1091 44.9226H46.6521L61.7518 35.4808C63.5947 34.3294 66.0182 34.8223 67.2641 36.606C68.5088 38.3892 68.1394 40.8326 66.4212 42.1673L49.7785 55.1042C49.676 55.185 49.5508 55.2283 49.4205 55.2283ZM10.456 54.0626H49.2201L65.708 41.2464C66.9351 40.293 67.1986 38.548 66.3096 37.2725C65.42 35.9976 63.6903 35.6453 62.3705 36.4694L47.1302 46C47.038 46.058 46.931 46.0882 46.8211 46.0882H42.0351C41.7135 46.0882 41.4523 45.8269 41.4523 45.5054C41.4523 45.1838 41.7135 44.9226 42.0351 44.9226C43.9548 44.9226 45.5166 43.3608 45.5166 41.441C45.5166 39.5224 43.9548 37.9601 42.0351 37.9601H28.6149C28.4203 37.9601 28.2364 37.861 28.1289 37.6982C28.0987 37.6527 25.0645 33.1803 19.1817 33.1803C13.8977 33.1803 11.0103 36.5907 10.4571 37.3158V54.0626H10.456Z" fill="#63312D"/>
<path d="M29.1511 44.9214H42.0351V46.087H29.1511V44.9214Z" fill="#63312D"/>
<path d="M9.87372 57.2613H0.583374V32.5957H9.87372V57.2613Z" fill="#E34400"/>
<path d="M9.87316 57.8449H0.582817C0.261243 57.8449 0 57.5842 0 57.262V32.5965C0 32.2743 0.261243 32.0137 0.582817 32.0137H9.87316C10.1947 32.0137 10.456 32.2743 10.456 32.5965V57.262C10.456 57.5842 10.1959 57.8449 9.87316 57.8449ZM1.16563 56.6792H9.29035V33.1793H1.16563V56.6792Z" fill="#63312D"/>
</svg>
