<svg width="61" height="61" viewBox="0 0 61 61" fill="none" xmlns="http://www.w3.org/2000/svg">
<g clip-path="url(#clip0_11_148)">
<path d="M45.9368 60.4811H40.4949V3.64941H45.9368C47.0834 3.64941 48.0122 4.57817 48.0122 5.72481V58.4057C48.0122 59.5513 47.0824 60.4811 45.9368 60.4811Z" fill="#A0A0A0"/>
<path d="M45.9357 61.0002H40.4949C40.2086 61.0002 39.9761 60.7677 39.9761 60.4814V3.64971C39.9761 3.36343 40.2086 3.13086 40.4949 3.13086H45.9357C47.3666 3.13086 48.53 4.29523 48.53 5.7251V58.406C48.53 59.8358 47.3666 61.0002 45.9357 61.0002ZM41.0138 59.9625H45.9357C46.7941 59.9625 47.4923 59.2638 47.4923 58.406V5.7251C47.4923 4.86677 46.7941 4.16856 45.9357 4.16856H41.0138V59.9625Z" fill="#63312D"/>
<path d="M42.5703 60.4811H3.14848C2.00185 60.4811 1.07309 59.5523 1.07309 58.4057V5.72481C1.07309 4.57817 2.00185 3.64941 3.14848 3.64941H42.5703C43.717 3.64941 44.6457 4.57817 44.6457 5.72481V58.4057C44.6457 59.5513 43.716 60.4811 42.5703 60.4811Z" fill="#E0E0E0"/>
<path d="M4.18618 5.72481H44.6457C44.6457 4.57817 43.717 3.64941 42.5703 3.64941H3.14848C2.00185 3.64941 1.07309 4.57817 1.07309 5.72481V58.4057C1.07309 59.5523 2.00185 60.4811 3.14848 60.4811V6.76251C3.14848 6.18944 3.61312 5.72481 4.18618 5.72481Z" fill="white"/>
<path d="M42.5703 61.0002H3.14844C1.71756 61.0002 0.554199 59.8358 0.554199 58.406V5.7251C0.554199 4.29523 1.71756 3.13086 3.14844 3.13086H42.5703C44.0017 3.13086 45.1645 4.29523 45.1645 5.7251V58.406C45.1645 59.8358 44.0017 61.0002 42.5703 61.0002ZM3.14844 4.16856C2.29011 4.16856 1.5919 4.86677 1.5919 5.7251V58.406C1.5919 59.2638 2.29011 59.9625 3.14844 59.9625H42.5703C43.4286 59.9625 44.1269 59.2638 44.1269 58.406V5.7251C44.1269 4.86677 43.4286 4.16856 42.5703 4.16856H3.14844Z" fill="#63312D"/>
<path d="M5.22385 7.80029H40.4949V56.3304H5.22385V7.80029Z" fill="#F8F3F3"/>
<path d="M40.4949 56.8495H5.22387C4.93759 56.8495 4.70502 56.617 4.70502 56.3307V7.80059C4.70502 7.51431 4.93759 7.28174 5.22387 7.28174H40.4949C40.7817 7.28174 41.0138 7.51431 41.0138 7.80059V56.3307C41.0138 56.617 40.7817 56.8495 40.4949 56.8495ZM5.74271 55.8118H39.9761V8.31944H5.74271V55.8118Z" fill="#63312D"/>
<path d="M12.7385 0.518555H34.2272V10.2647H12.7385V0.518555Z" fill="white"/>
<path d="M14.8139 2.59395H34.2272V0.518555H12.7385V10.2647H14.8139V2.59395Z" fill="white"/>
<path d="M34.2272 10.7838H12.7385C12.4523 10.7838 12.2197 10.5513 12.2197 10.265V0.518849C12.2197 0.23257 12.4523 0 12.7385 0H34.2272C34.514 0 34.746 0.23257 34.746 0.518849V10.265C34.746 10.5513 34.514 10.7838 34.2272 10.7838ZM13.2574 9.74615H33.7083V1.0377H13.2574V9.74615Z" fill="#63312D"/>
<path d="M28.2584 43.5676L33.0416 42.008L58.9931 16.0564C60.3754 14.6742 60.3754 12.4326 58.9931 11.0504C57.6109 9.66811 55.3693 9.66811 53.987 11.0504L28.0355 37.0024L26.4759 41.785C26.3107 42.2912 26.4435 42.8466 26.8205 43.223C27.1969 43.599 27.7533 43.7327 28.2584 43.5676Z" fill="white"/>
<path d="M53.5522 21.4967L58.8714 16.1775C60.0991 14.9503 60.4082 12.9848 59.4187 11.558C58.117 9.68375 55.5227 9.51351 53.988 11.0493L48.5467 16.4911L53.5522 21.4967Z" fill="#E34400"/>
<path d="M30.3971 34.6412L32.4021 32.6367L37.4077 37.6423L35.4027 39.6468L30.3971 34.6412Z" fill="#E0E0E0"/>
<path d="M27.8166 44.1573C27.3144 44.1573 26.8235 43.9597 26.4541 43.5904C25.9373 43.0725 25.7569 42.3196 25.9839 41.6239L27.5425 36.8423C27.5673 36.7648 27.6109 36.6938 27.6691 36.6361L53.6222 10.684C55.1544 9.15026 57.8297 9.15026 59.3615 10.684C60.1271 11.4511 60.5507 12.4701 60.5507 13.5534C60.5507 14.6377 60.1281 15.6566 59.3615 16.4238L33.4089 42.3753C33.3506 42.4336 33.2802 42.4772 33.2032 42.502L28.4205 44.0616C28.2214 44.1249 28.0187 44.1573 27.8166 44.1573ZM28.491 37.2811L26.9709 41.9456C26.865 42.2684 26.9491 42.617 27.1878 42.8557C27.4264 43.0943 27.777 43.1774 28.0978 43.0735L32.7634 41.5525L58.6278 15.6891C59.1983 15.118 59.513 14.3595 59.513 13.5524C59.513 12.7462 59.1983 11.9872 58.6278 11.4167C57.4502 10.2391 55.5334 10.2391 54.3554 11.4167L28.491 37.2811Z" fill="#63312D"/>
<path d="M48.1804 16.8611L48.9141 16.1274L53.9197 21.133L53.186 21.8667L48.1804 16.8611Z" fill="#63312D"/>
<path d="M32.1001 33.0696L32.8343 32.3359L37.6767 37.1789L36.943 37.9126L32.1001 33.0696Z" fill="#63312D"/>
<path d="M30.0977 35.074L30.8313 34.3403L35.6742 39.1833L34.9406 39.9169L30.0977 35.074Z" fill="#63312D"/>
<path d="M46.3537 28.3735C45.7052 27.7249 45.7052 26.673 46.3537 26.0235L53.5026 18.8746C54.1512 18.226 55.2036 18.226 55.8531 18.8746C56.5017 19.5232 56.5017 20.5756 55.8531 21.2251L48.7043 28.3735C48.0547 29.0236 47.0023 29.0236 46.3537 28.3735Z" fill="#E0E0E0"/>
<path d="M47.5278 29.3793C46.9694 29.3793 46.411 29.1664 45.9864 28.7408C45.1367 27.8911 45.1367 26.5068 45.9864 25.6571L53.1353 18.5083C53.9571 17.6864 55.3956 17.6844 56.2195 18.5083C56.6314 18.9202 56.8584 19.4684 56.8584 20.0501C56.8584 20.6323 56.6314 21.1805 56.2195 21.5925L49.0706 28.7408C48.646 29.1664 48.0871 29.3793 47.5278 29.3793ZM46.7201 28.0076C47.1675 28.4545 47.8916 28.4535 48.3369 28.0076L55.4858 20.8588C55.7016 20.6429 55.8207 20.3556 55.8207 20.0501C55.8207 19.7451 55.7016 19.4578 55.4858 19.2419C55.0531 18.8092 54.2996 18.8102 53.869 19.2419L46.7201 26.3908C46.2752 26.8367 46.2752 27.5613 46.7201 28.0076Z" fill="#63312D"/>
<path d="M10.54 19.354H16.1177V24.9316H10.54V19.354Z" fill="#E34400"/>
<path d="M16.1177 25.4503H10.5401C10.2533 25.4503 10.0212 25.2177 10.0212 24.9314V19.3538C10.0212 19.0675 10.2533 18.835 10.5401 18.835H16.1177C16.404 18.835 16.6365 19.0675 16.6365 19.3538V24.9314C16.6365 25.2177 16.404 25.4503 16.1177 25.4503ZM11.0589 24.4126H15.5988V19.8727H11.0589V24.4126Z" fill="#63312D"/>
<path d="M13.3284 23.2274C13.3273 23.2274 13.3263 23.2274 13.3253 23.2274C13.1693 23.2263 13.0223 23.1559 12.9245 23.0348L10.46 19.9856L11.2661 19.333L13.3324 21.8892L17.0784 17.3721L17.8774 18.0348L13.7266 23.0399C13.6293 23.159 13.4829 23.2274 13.3284 23.2274Z" fill="white"/>
<path d="M20.4625 21.6235H35.4448V22.6612H20.4625V21.6235Z" fill="#63312D"/>
<path d="M10.54 30.1016H16.1177V35.6792H10.54V30.1016Z" fill="#E34400"/>
<path d="M16.1177 36.1978H10.5401C10.2533 36.1978 10.0212 35.9658 10.0212 35.679V30.1014C10.0212 29.8151 10.2533 29.5825 10.5401 29.5825H16.1177C16.404 29.5825 16.6365 29.8151 16.6365 30.1014V35.679C16.6365 35.9658 16.404 36.1978 16.1177 36.1978ZM11.0589 35.1601H15.5988V30.6202H11.0589V35.1601Z" fill="#63312D"/>
<path d="M13.3284 33.9755C13.3273 33.9755 13.3263 33.9755 13.3253 33.9755C13.1693 33.9745 13.0223 33.9035 12.9245 33.7824L10.46 30.7337L11.2661 30.0806L13.3324 32.6368L17.0784 28.1187L17.8774 28.7814L13.7266 33.7865C13.6293 33.9066 13.4829 33.9755 13.3284 33.9755Z" fill="white"/>
<path d="M20.4625 32.3706H32.1478V33.4083H20.4625V32.3706Z" fill="#63312D"/>
<path d="M10.54 40.8477H16.1177V46.4253H10.54V40.8477Z" fill="#E34400"/>
<path d="M16.1177 46.9444H10.5401C10.2533 46.9444 10.0212 46.7123 10.0212 46.4256V40.8479C10.0212 40.5617 10.2533 40.3291 10.5401 40.3291H16.1177C16.404 40.3291 16.6365 40.5617 16.6365 40.8479V46.4256C16.6365 46.7134 16.404 46.9444 16.1177 46.9444ZM11.0589 45.9067H15.5988V41.3668H11.0589V45.9067Z" fill="#63312D"/>
<path d="M13.3284 44.7225C13.3273 44.7225 13.3263 44.7225 13.3253 44.7225C13.1693 44.7215 13.0223 44.6505 12.9245 44.5294L10.46 41.4807L11.2661 40.8281L13.3324 43.3838L17.0784 38.8667L17.8774 39.53L13.7266 44.5345C13.6293 44.6526 13.4829 44.7225 13.3284 44.7225Z" fill="white"/>
<path d="M20.4625 43.1182H27.7918V44.1559H20.4625V43.1182Z" fill="#63312D"/>
</g>
<defs>
<clipPath id="clip0_11_148">
<rect width="61" height="61" fill="white"/>
</clipPath>
</defs>
</svg>
