<svg width="61" height="61" viewBox="0 0 61 61" fill="none" xmlns="http://www.w3.org/2000/svg">
<g clip-path="url(#clip0_11_253)">
<path d="M52.9226 8.97852H36.6627C35.0468 8.97852 33.7368 10.2885 33.7368 11.9044V26.6483C33.7368 28.2642 35.0468 29.5741 36.6627 29.5741H37.8636V35.6247L46.1876 29.5741H52.9236C54.5395 29.5741 55.8494 28.2642 55.8494 26.6483V11.9044C55.8484 10.2885 54.538 8.97852 52.9226 8.97852Z" fill="#E34400"/>
<path d="M35.8149 28.7264V12.5695C35.8149 11.7339 36.4922 11.0566 37.3273 11.0566H55.0007C55.2584 11.0566 55.5034 11.1002 55.7414 11.1626C55.4121 9.90746 54.2807 8.97852 52.9226 8.97852H36.6627C35.0468 8.97852 33.7368 10.2885 33.7368 11.9044V26.6483C33.7368 28.0065 34.6663 29.1378 35.9205 29.4671C35.8586 29.2292 35.8149 28.9841 35.8149 28.7264Z" fill="white"/>
<path d="M37.8636 36.1442C37.7834 36.1442 37.7028 36.1255 37.6277 36.0869C37.4532 35.9986 37.3441 35.8201 37.3441 35.6247V30.0937H36.6627C34.7632 30.0937 33.2184 28.5488 33.2184 26.6483V11.9044C33.2184 10.0038 34.7632 8.45898 36.6627 8.45898H52.9226C54.8231 8.45898 56.368 10.0038 56.368 11.9044V26.6483C56.368 28.5488 54.8231 30.0937 52.9226 30.0937H46.3555L38.169 36.0453C38.0787 36.1108 37.9706 36.1442 37.8636 36.1442ZM36.6627 9.49803C35.3365 9.49803 34.2574 10.5777 34.2574 11.9044V26.6483C34.2574 27.975 35.3365 29.0546 36.6627 29.0546H37.8636C38.1502 29.0546 38.3831 29.2875 38.3831 29.5741V34.6055L45.8822 29.1546C45.9704 29.0901 46.0775 29.0546 46.1876 29.0546H52.9226C54.2493 29.0546 55.3289 27.975 55.3289 26.6483V11.9044C55.3289 10.5777 54.2493 9.49803 52.9226 9.49803H36.6627Z" fill="#63312D"/>
<path d="M57.5557 8.97852H52.9226C54.538 8.97852 55.8484 10.2885 55.8484 11.9044V26.6483C55.8484 28.2642 54.538 29.5741 52.9226 29.5741H57.5546C59.17 29.5741 60.4805 28.2642 60.4805 26.6483V11.9044C60.4815 10.2885 59.1716 8.97852 57.5557 8.97852Z" fill="#F9A287"/>
<path d="M57.5557 30.0937H52.9226C52.6359 30.0937 52.4031 29.8608 52.4031 29.5741C52.4031 29.2875 52.6359 29.0546 52.9226 29.0546C54.2493 29.0546 55.3289 27.975 55.3289 26.6483V11.9044C55.3289 10.5777 54.2493 9.49803 52.9226 9.49803C52.6359 9.49803 52.4031 9.26515 52.4031 8.9785C52.4031 8.69186 52.6359 8.45898 52.9226 8.45898H57.5557C59.4551 8.45898 61 10.0038 61 11.9044V26.6483C61 28.5488 59.4551 30.0937 57.5557 30.0937ZM55.3862 29.0546H57.5557C58.8813 29.0546 59.961 27.975 59.961 26.6483V11.9044C59.961 10.5777 58.8813 9.49803 57.5557 9.49803H55.3862C55.994 10.119 56.368 10.9693 56.368 11.9044V26.6483C56.368 27.5843 55.994 28.4336 55.3862 29.0546Z" fill="#63312D"/>
<path d="M42.1476 45.7914C42.0913 44.7235 41.1324 43.9224 40.0634 43.9224H31.3407C32.603 41.7444 34.2051 39.5065 34.7942 37.0458C35.0407 36.0164 34.6851 34.9033 33.7988 34.3239C32.6227 33.5548 31.0977 33.9247 30.3859 35.0657L30.0302 35.6349C29.0186 37.2559 27.6883 38.6556 26.1206 39.7474L21.2527 43.138V58.4314L23.0126 59.0696C24.2084 59.5039 25.4722 59.7251 26.7452 59.7251H37.927C38.996 59.7251 39.9554 58.924 40.0112 57.8561C40.0705 56.7171 39.1644 55.775 38.0381 55.775H38.6327C39.7027 55.775 40.6606 54.9739 40.7169 53.9054C40.7763 52.7669 39.8701 51.8243 38.7438 51.8243H39.3379C40.4074 51.8243 41.3663 51.0232 41.4226 49.9552C41.4815 48.8162 40.5754 47.8731 39.4491 47.8731H40.1746C41.3019 47.8731 42.208 46.9304 42.1476 45.7914Z" fill="white"/>
<path d="M40.1756 48.3924H37.2401V47.3533H40.1756C40.9777 47.3533 41.6312 46.7004 41.6312 45.8973C41.6312 45.0941 40.9777 44.4417 40.1756 44.4417H31.3407C31.1545 44.4417 30.983 44.3417 30.8897 44.1819C30.7973 44.0211 30.7973 43.8222 30.8907 43.6624C31.1555 43.2063 31.4351 42.7472 31.7176 42.2834C32.7922 40.5194 33.9028 38.695 34.3259 36.7676C34.5222 35.8665 34.0494 34.9523 33.2016 34.5926C32.3275 34.2228 31.328 34.5353 30.8252 35.342L30.4701 35.9112C29.4153 37.6007 28.0521 39.0354 26.4164 40.1754L21.55 43.566L20.9554 42.7137L25.8223 39.3236C27.3423 38.2648 28.6102 36.9315 29.5898 35.3617L29.945 34.792C30.7192 33.5515 32.261 33.0655 33.608 33.6368C34.9159 34.1928 35.6455 35.6027 35.3411 36.9908C34.8814 39.0887 33.7242 40.9882 32.605 42.8248C32.4878 43.0191 32.3691 43.2124 32.2529 43.4047H40.1756C41.5515 43.4047 42.6702 44.5239 42.6702 45.8993C42.6702 47.2752 41.5515 48.3924 40.1756 48.3924Z" fill="#63312D"/>
<path d="M39.4491 52.3437H36.5141V51.3047H39.4491C40.2512 51.3047 40.9051 50.6522 40.9051 49.8491C40.9051 49.046 40.2512 48.3935 39.4491 48.3935H36.5141V47.3545H39.4491C40.825 47.3545 41.9442 48.4732 41.9442 49.8491C41.9452 51.2245 40.826 52.3437 39.4491 52.3437Z" fill="#63312D"/>
<path d="M38.7449 56.2944H35.8083V55.2554H38.7449C39.547 55.2554 40.2004 54.6024 40.2004 53.7993C40.2004 52.9962 39.547 52.3437 38.7449 52.3437H35.8083V51.3047H38.7449C40.1203 51.3047 41.2395 52.4239 41.2395 53.7993C41.2395 55.1752 40.1203 56.2944 38.7449 56.2944Z" fill="#63312D"/>
<path d="M38.0381 60.2455H26.6036C25.3601 60.2455 24.1369 60.0304 22.968 59.6078L21.0751 58.9209L21.4302 57.9442L23.3231 58.6312C24.3779 59.0132 25.4803 59.2075 26.6036 59.2075H38.0381C38.8402 59.2075 39.4937 58.5551 39.4937 57.7519C39.4937 56.9498 38.8402 56.2964 38.0381 56.2964H35.1021V55.2573H38.0381C39.414 55.2573 40.5327 56.376 40.5327 57.7519C40.5327 59.1263 39.414 60.2455 38.0381 60.2455Z" fill="#63312D"/>
<path d="M14.507 42.7461H21.2526V59.3728H14.507V42.7461Z" fill="#E0E0E0"/>
<path d="M21.2526 59.8923H14.508C14.2214 59.8923 13.9885 59.6594 13.9885 59.3728V42.7461C13.9885 42.4589 14.2214 42.2266 14.508 42.2266H21.2526C21.5393 42.2266 21.7722 42.4589 21.7722 42.7461V59.3728C21.7722 59.6604 21.5393 59.8923 21.2526 59.8923ZM15.0265 58.8532H20.7331V43.2656H15.0275V58.8532H15.0265Z" fill="#63312D"/>
<path d="M3.80916 1.25537H22.3384C24.1557 1.25537 25.629 2.7287 25.629 4.546V21.127C25.629 22.9443 24.1557 24.4177 22.3384 24.4177H20.9878V31.2222L11.6268 24.4177H3.80916C1.99185 24.4177 0.518524 22.9443 0.518524 21.127V4.546C0.518524 2.7287 1.99185 1.25537 3.80916 1.25537Z" fill="#E0E0E0"/>
<path d="M2.59661 23.2051V5.41153C2.59661 4.26341 3.52657 3.33345 4.67469 3.33345H24.4154C24.7782 3.33345 25.1207 3.406 25.4464 3.51407C25.0116 2.20512 23.7919 1.25537 22.3374 1.25537H3.80916C1.99185 1.25537 0.518524 2.7287 0.518524 4.54601V21.127C0.518524 22.5816 1.46929 23.8017 2.77722 24.236C2.66916 23.9108 2.59661 23.5679 2.59661 23.2051Z" fill="white"/>
<path d="M20.9878 31.7417C20.8797 31.7417 20.7727 31.7087 20.6819 31.6422L11.4584 24.9372H3.81015C1.70924 24.9372 0 23.2279 0 21.127V4.54599C0 2.4461 1.70924 0.73584 3.81015 0.73584H22.3384C24.4393 0.73584 26.1485 2.44508 26.1485 4.54599V21.127C26.1485 23.2269 24.4393 24.9372 22.3384 24.9372H21.5073V31.2221C21.5073 31.4175 21.3983 31.5966 21.2232 31.6848C21.1486 31.7229 21.0675 31.7417 20.9878 31.7417ZM3.81015 1.77488C2.28153 1.77488 1.03904 3.01737 1.03904 4.54599V21.127C1.03904 22.6546 2.28153 23.8981 3.81015 23.8981H11.6268C11.7359 23.8981 11.8439 23.9336 11.9322 23.9981L20.4683 30.2029V24.4187C20.4683 24.132 20.7007 23.8991 20.9878 23.8991H22.3384C23.867 23.8991 25.1095 22.6567 25.1095 21.128V4.54599C25.1095 3.01838 23.867 1.77488 22.3384 1.77488H3.81015Z" fill="#63312D"/>
<path d="M27.5275 1.25537H22.3374C24.1547 1.25537 25.628 2.7287 25.628 4.546V21.127C25.628 22.9443 24.1547 24.4177 22.3374 24.4177H20.9868V31.2222H26.1764V24.4177H27.5275C29.3448 24.4177 30.8181 22.9443 30.8181 21.127V4.546C30.8181 2.7287 29.3448 1.25537 27.5275 1.25537Z" fill="white"/>
<path d="M26.1774 31.7417H20.9878C20.7007 31.7417 20.4683 31.5093 20.4683 31.2221V24.4177C20.4683 24.131 20.7007 23.8981 20.9878 23.8981H22.3384C23.867 23.8981 25.1095 22.6556 25.1095 21.127V4.54599C25.1095 3.01838 23.867 1.77488 22.3384 1.77488C22.0517 1.77488 21.8188 1.54201 21.8188 1.25536C21.8188 0.968711 22.0517 0.73584 22.3384 0.73584H27.5285C29.6284 0.73584 31.3376 2.44508 31.3376 4.54599V21.127C31.3376 23.2269 29.6284 24.9372 27.5285 24.9372H26.697V31.2221C26.697 31.5093 26.4646 31.7417 26.1774 31.7417ZM21.5073 30.7026H25.6579V24.4177C25.6579 24.131 25.8908 23.8981 26.1774 23.8981H27.5285C29.0556 23.8981 30.2986 22.6556 30.2986 21.127V4.54599C30.2986 3.01838 29.0556 1.77488 27.5285 1.77488H24.9517C25.6884 2.46994 26.1485 3.4552 26.1485 4.54599V21.127C26.1485 23.2269 24.4393 24.9372 22.3384 24.9372H21.5073V30.7026Z" fill="#63312D"/>
<path d="M6.7421 8.45898H19.4059V9.49802H6.7421V8.45898Z" fill="#63312D"/>
<path d="M6.7421 11.9004H19.4059V12.9394H6.7421V11.9004Z" fill="#63312D"/>
<path d="M6.7421 15.3428H19.4059V16.3818H6.7421V15.3428Z" fill="#63312D"/>
<path d="M39.1218 15.3159H51.7856V16.355H39.1218V15.3159Z" fill="#63312D"/>
<path d="M39.1218 18.7573H51.7856V19.7964H39.1218V18.7573Z" fill="#63312D"/>
<path d="M39.1218 22.1997H51.7856V23.2387H39.1218V22.1997Z" fill="#63312D"/>
</g>
<defs>
<clipPath id="clip0_11_253">
<rect width="61" height="61" fill="white"/>
</clipPath>
</defs>
</svg>
