<svg width="69" height="68" viewBox="0 0 69 68" fill="none" xmlns="http://www.w3.org/2000/svg">
<g clip-path="url(#clip0_11_181)">
<path d="M55.5755 35.7807H51.176C50.5239 35.7807 49.9941 35.2591 49.9941 34.6158V28.8128C49.9941 28.1701 50.5239 27.6479 51.176 27.6479H55.5743C56.2265 27.6479 56.7563 28.1701 56.7563 28.8128V34.6158C56.7574 35.2591 56.2276 35.7807 55.5755 35.7807Z" fill="#E0E0E0"/>
<path d="M6.32366 35.7807H1.92423C1.27208 35.7807 0.742279 35.2591 0.742279 34.6158V28.8128C0.742279 28.1701 1.27208 27.6479 1.92423 27.6479H6.3225C6.97465 27.6479 7.50445 28.1701 7.50445 28.8128V34.6158C7.50561 35.2591 6.97581 35.7807 6.32366 35.7807Z" fill="#E0E0E0"/>
<path d="M55.5755 36.3618H51.1772C50.2001 36.3618 49.4043 35.5781 49.4043 34.6146V28.8127C49.4043 27.8498 50.2001 27.0654 51.1772 27.0654H55.5755C56.5531 27.0654 57.3484 27.8498 57.3484 28.8127V34.6146C57.3484 35.5781 56.5531 36.3618 55.5755 36.3618ZM51.1772 28.2303C50.8523 28.2303 50.5862 28.4925 50.5862 28.8127V34.6146C50.5862 34.9354 50.8523 35.197 51.1772 35.197H55.5755C55.9004 35.197 56.1664 34.9354 56.1664 34.6146V28.8127C56.1664 28.4925 55.9004 28.2303 55.5755 28.2303H51.1772Z" fill="#63312D"/>
<path d="M6.32358 36.3618H1.92415C0.946504 36.3618 0.151226 35.5781 0.151226 34.6146V28.8127C0.151226 27.8498 0.946504 27.0654 1.92415 27.0654H6.32358C7.30065 27.0654 8.09651 27.8498 8.09651 28.8127V34.6146C8.09651 35.5781 7.30065 36.3618 6.32358 36.3618ZM1.92415 28.2303C1.59923 28.2303 1.33318 28.4925 1.33318 28.8127V34.6146C1.33318 34.9354 1.59923 35.197 1.92415 35.197H6.32358C6.6485 35.197 6.91455 34.9354 6.91455 34.6146V28.8127C6.91455 28.4925 6.6485 28.2303 6.32358 28.2303H1.92415Z" fill="#63312D"/>
<path d="M51.6678 36.3618H5.83191C5.65473 36.3618 5.48564 36.2839 5.3731 36.1468C5.25998 36.0103 5.21612 35.8312 5.25248 35.6594L9.27215 16.6821C9.54456 15.1761 10.8835 14.0698 12.4556 14.0698H45.0441C46.6162 14.0698 47.9551 15.1761 48.2298 16.702L52.2449 35.6611C52.2812 35.8323 52.2374 36.0115 52.1243 36.148C52.014 36.2839 51.8449 36.3618 51.6678 36.3618ZM6.55851 35.197H50.9412L47.0715 16.9222C46.8938 15.9371 46.0431 15.2346 45.0453 15.2346H12.4556C11.4577 15.2346 10.6082 15.9382 10.4333 16.9051L6.55851 35.197Z" fill="#63312D"/>
<path d="M51.6678 35.7807H5.83191L9.85158 16.8023C10.0761 15.5584 11.1732 14.6523 12.4556 14.6523H45.0452C46.3276 14.6523 47.4247 15.5584 47.6492 16.8023L51.6678 35.7807Z" fill="#E0E0E0"/>
<path d="M51.6678 36.3618H5.83191C5.65473 36.3618 5.48564 36.2839 5.3731 36.1468C5.25998 36.0103 5.21612 35.8312 5.25248 35.6594L9.27215 16.6821C9.54456 15.1761 10.8835 14.0698 12.4556 14.0698H45.0441C46.6162 14.0698 47.9551 15.1761 48.2298 16.702L52.2449 35.6611C52.2812 35.8323 52.2374 36.0115 52.1243 36.148C52.014 36.2839 51.8449 36.3618 51.6678 36.3618ZM6.55851 35.197H50.9412L47.0715 16.9222C46.8938 15.9371 46.0431 15.2346 45.0453 15.2346H12.4556C11.4577 15.2346 10.6082 15.9382 10.4333 16.9051L6.55851 35.197Z" fill="#63312D"/>
<path d="M9.85964 35.7808H47.6388L43.9354 18.5615H13.5631L9.85964 35.7808Z" fill="#EEEEEE"/>
<path d="M47.64 36.3619H9.86079C9.68361 36.3619 9.51336 36.2829 9.4014 36.1452C9.28886 36.0082 9.245 35.8296 9.28193 35.6584L12.9836 18.4403C13.0419 18.1712 13.2826 17.979 13.5619 17.979H43.9354C44.2147 17.979 44.4554 18.1712 44.5137 18.4403L48.2165 35.6584C48.2534 35.8296 48.2096 36.0093 48.097 36.1452C47.9851 36.2817 47.8171 36.3619 47.64 36.3619ZM10.5903 35.1971H46.9093L43.4581 19.1438H14.0415L10.5903 35.1971Z" fill="#63312D"/>
<path d="M54.6982 52.3237H2.80138V43.7332C2.80138 42.2607 3.16266 40.812 3.85405 39.5073L5.83071 35.7808H51.6666L53.6426 39.5073C54.334 40.812 54.6959 42.2607 54.6959 43.7332V52.3237H54.6982Z" fill="#E0E0E0"/>
<path d="M54.6982 52.9062H2.80139C2.47474 52.9062 2.21042 52.6452 2.21042 52.3238V43.7321C2.21042 42.1726 2.59767 40.6176 3.33062 39.2372L5.30669 35.5107C5.41 35.3184 5.61084 35.1973 5.83072 35.1973H51.6666C51.8876 35.1973 52.0873 35.3184 52.19 35.5107L54.1678 39.2372C54.9002 40.621 55.288 42.1748 55.288 43.7321V52.3238C55.2892 52.6463 55.026 52.9062 54.6982 52.9062ZM3.39237 51.7414H54.1072V43.7321C54.1072 42.3625 53.7656 40.9935 53.1203 39.7764L51.3099 36.3621H6.18854L4.37925 39.7764C3.73403 40.9924 3.39237 42.3614 3.39237 43.7321V51.7414Z" fill="#63312D"/>
<path d="M54.742 59.2194H2.75751C2.10479 59.2194 1.57556 58.6978 1.57556 58.0546V53.4886C1.57556 52.8459 2.10479 52.3237 2.75751 52.3237H54.742C55.3948 52.3237 55.924 52.8459 55.924 53.4886V58.0546C55.924 58.6978 55.3948 59.2194 54.742 59.2194Z" fill="white"/>
<path d="M54.7409 59.8005H2.75752C1.77987 59.8005 0.984596 59.0168 0.984596 58.0533V53.4884C0.984596 52.525 1.77987 51.7412 2.75752 51.7412H54.7409C55.7186 51.7412 56.5138 52.525 56.5138 53.4884V58.0533C56.5138 59.0179 55.7197 59.8005 54.7409 59.8005ZM2.75752 52.906C2.4326 52.906 2.16655 53.1682 2.16655 53.4884V58.0533C2.16655 58.3735 2.4326 58.6357 2.75752 58.6357H54.7409C55.0658 58.6357 55.3319 58.3735 55.3319 58.0533V53.4884C55.3319 53.1682 55.0658 52.906 54.7409 52.906H2.75752Z" fill="#63312D"/>
<path d="M12.7949 49.1203H2.57691C1.92418 49.1203 1.39496 48.5988 1.39496 47.9555V43.4441C1.39496 42.8014 1.92418 42.2793 2.57691 42.2793H12.7949C13.4471 42.2793 13.9769 42.8014 13.9769 43.4441V47.9555C13.9769 48.5988 13.4471 49.1203 12.7949 49.1203Z" fill="#EEEEEE"/>
<path d="M54.9227 49.1203H44.7047C44.0526 49.1203 43.5228 48.5988 43.5228 47.9555V43.4441C43.5228 42.8014 44.0526 42.2793 44.7047 42.2793H54.9227C55.5755 42.2793 56.1047 42.8014 56.1047 43.4441V47.9555C56.1047 48.5988 55.5755 49.1203 54.9227 49.1203Z" fill="#EEEEEE"/>
<path d="M12.7949 49.7031H2.57808C1.60043 49.7031 0.805149 48.9194 0.805149 47.9559V43.4445C0.805149 42.4816 1.60043 41.6973 2.57808 41.6973H12.7961C13.7731 41.6973 14.569 42.4816 14.569 43.4445V47.9559C14.5679 48.9205 13.772 49.7031 12.7949 49.7031ZM2.57808 42.8621C2.25258 42.8621 1.9871 43.1243 1.9871 43.4445V47.9559C1.9871 48.2761 2.25258 48.5383 2.57808 48.5383H12.7961C13.121 48.5383 13.3871 48.2761 13.3871 47.9559V43.4445C13.3871 43.1243 13.121 42.8621 12.7961 42.8621H2.57808Z" fill="#63312D"/>
<path d="M54.9227 49.7031H44.7047C43.7276 49.7031 42.9318 48.9194 42.9318 47.9559V43.4445C42.9318 42.4816 43.7276 41.6973 44.7047 41.6973H54.9227C55.9004 41.6973 56.6956 42.4816 56.6956 43.4445V47.9559C56.6956 48.9205 55.9004 49.7031 54.9227 49.7031ZM44.7047 42.8621C44.3798 42.8621 44.1137 43.1243 44.1137 43.4445V47.9559C44.1137 48.2761 44.3798 48.5383 44.7047 48.5383H54.9227C55.2482 48.5383 55.5137 48.2761 55.5137 47.9559V43.4445C55.5137 43.1243 55.2482 42.8621 54.9227 42.8621H44.7047Z" fill="#63312D"/>
<path d="M19.8249 42.2793H38.17V52.3236H19.8249V42.2793Z" fill="#A0A0A0"/>
<path d="M38.1711 52.9064H19.8248C19.4988 52.9064 19.2339 52.6453 19.2339 52.324V42.2797C19.2339 41.9583 19.4988 41.6973 19.8248 41.6973H38.1699C38.496 41.6973 38.7609 41.9583 38.7609 42.2797V52.324C38.7621 52.6465 38.4972 52.9064 38.1711 52.9064ZM20.4158 51.7416H37.579V42.8621H20.4158V51.7416Z" fill="#63312D"/>
<path d="M11.9864 67.4174H7.23142C5.92539 67.4174 4.86752 66.3748 4.86752 65.0877V59.2192H14.3503V65.0877C14.3503 66.3748 13.2924 67.4174 11.9864 67.4174Z" fill="#A0A0A0"/>
<path d="M50.2682 67.4174H45.5133C44.2073 67.4174 43.1494 66.3748 43.1494 65.0877V59.2192H52.6321V65.0877C52.6321 66.3748 51.5731 67.4174 50.2682 67.4174Z" fill="#A0A0A0"/>
<path d="M11.9875 68.0003H7.23145C5.60107 68.0003 4.27657 66.6944 4.27657 65.0883V59.2186C4.27657 58.8973 4.54089 58.6362 4.86754 58.6362H14.3503C14.6764 58.6362 14.9413 58.8973 14.9413 59.2186V65.0883C14.9424 66.6944 13.6173 68.0003 11.9875 68.0003ZM5.45852 59.8011V65.0883C5.45852 66.0517 6.2538 66.8355 7.23145 66.8355H11.9864C12.9635 66.8355 13.7593 66.0517 13.7593 65.0883V59.8011H5.45852Z" fill="#63312D"/>
<path d="M50.2683 68.0003H45.5133C43.8835 68.0003 42.5584 66.6944 42.5584 65.0883V59.2186C42.5584 58.8973 42.8233 58.6362 43.1494 58.6362H52.6322C52.9588 58.6362 53.2231 58.8973 53.2231 59.2186V65.0883C53.2231 66.6944 51.8986 68.0003 50.2683 68.0003ZM43.7404 59.8011V65.0883C43.7404 66.0517 44.5362 66.8355 45.5133 66.8355H50.2683C51.2459 66.8355 52.0412 66.0517 52.0412 65.0883V59.8011H43.7404Z" fill="#63312D"/>
<path d="M14.8264 35.8663L13.712 35.4772L14.7352 32.6374C14.8183 32.4042 15.0417 32.2495 15.2921 32.2495H26.751V33.4143H15.7094L14.8264 35.8663Z" fill="#63312D"/>
<path d="M30.2271 35.8663L29.1126 35.4772L30.1364 32.6374C30.219 32.4042 30.4423 32.2495 30.6928 32.2495H42.1522V33.4143H31.1101L30.2271 35.8663Z" fill="#63312D"/>
<path d="M63.575 14.9437C63.575 22.8751 57.0506 29.3049 49.0026 29.3049C40.9546 29.3049 34.4302 22.8751 34.4302 14.9437C34.4302 7.01236 40.9546 0.58252 49.0026 0.58252C57.0506 0.58252 63.575 7.01236 63.575 14.9437Z" fill="#E34400"/>
<path d="M36.7952 14.9436C36.7952 7.40578 42.6923 1.23586 50.1857 0.64151C49.7944 0.610228 49.4031 0.583496 49.0038 0.583496C40.9557 0.583496 34.4313 7.01334 34.4313 14.9447C34.4313 22.8761 40.9557 29.3059 49.0038 29.3059C49.4031 29.3059 49.7944 29.2775 50.1857 29.2473C42.6912 28.6501 36.7952 22.4808 36.7952 14.9436Z" fill="white"/>
<path d="M49.0026 29.8861C40.6423 29.8861 33.8403 23.1821 33.8403 14.9436C33.8403 6.70342 40.6423 0 49.0026 0C57.364 0 64.166 6.70342 64.166 14.9436C64.166 23.1821 57.364 29.8861 49.0026 29.8861ZM49.0026 1.16482C41.2939 1.16482 35.0223 7.34668 35.0223 14.9436C35.0223 22.5406 41.2939 28.7213 49.0026 28.7213C56.7112 28.7213 62.984 22.5406 62.984 14.9436C62.984 7.34668 56.7112 1.16482 49.0026 1.16482Z" fill="#63312D"/>
<path d="M42.0732 14.9268L46.2805 19.0731L55.5366 9.95117" stroke="white"/>
</g>
<defs>
<clipPath id="clip0_11_181">
<rect width="69" height="68" fill="white"/>
</clipPath>
</defs>
</svg>
