<svg width="67" height="67" viewBox="0 0 67 67" fill="none" xmlns="http://www.w3.org/2000/svg">
<g clip-path="url(#clip0_11_216)">
<path d="M64.1508 61.6668H8.0023C6.74288 61.6668 5.72276 60.6467 5.72276 59.3873V25.6306C5.72276 24.3712 6.74288 23.3511 8.0023 23.3511H64.1508C65.4102 23.3511 66.4303 24.3712 66.4303 25.6306V59.3873C66.4303 60.6467 65.4091 61.6668 64.1508 61.6668Z" fill="white"/>
<path d="M64.1507 62.2369H8.00226C6.43063 62.2369 5.15285 60.958 5.15285 59.3875V25.6297C5.15285 24.0592 6.43063 22.7803 8.00226 22.7803H64.1507C65.7224 22.7803 67.0002 24.0592 67.0002 25.6297V59.3875C67.0002 60.9591 65.7224 62.2369 64.1507 62.2369ZM8.00226 23.92C7.05951 23.92 6.29261 24.6869 6.29261 25.6297V59.3875C6.29261 60.3297 7.05951 61.0971 8.00226 61.0971H64.1507C65.0929 61.0971 65.8604 60.3297 65.8604 59.3875V25.6297C65.8604 24.6869 65.0929 23.92 64.1507 23.92H8.00226Z" fill="#63312D"/>
<path d="M58.9979 61.6668H2.84945C1.59003 61.6668 0.569916 60.6467 0.569916 59.3873V25.6306C0.569916 24.3712 1.59003 23.3511 2.84945 23.3511H58.9979C60.2574 23.3511 61.2775 24.3712 61.2775 25.6306V59.3873C61.2775 60.6467 60.2574 61.6668 58.9979 61.6668Z" fill="#E0E0E0"/>
<path d="M2.84945 26.7704C2.84945 26.1415 3.36034 25.6306 3.98921 25.6306H61.2775C61.2775 24.3712 60.2574 23.3511 58.9979 23.3511H2.84945C1.59003 23.3511 0.569916 24.3712 0.569916 25.6306V59.3873C0.569916 60.6467 1.59003 61.6668 2.84945 61.6668V26.7704Z" fill="white"/>
<path d="M58.9979 62.2369H2.84941C1.27778 62.2369 0 60.958 0 59.3875V25.6297C0 24.0592 1.27778 22.7803 2.84941 22.7803H58.9979C60.5695 22.7803 61.8473 24.0592 61.8473 25.6297V59.3875C61.8473 60.9591 60.5695 62.2369 58.9979 62.2369ZM2.84941 23.92C1.90666 23.92 1.13977 24.6869 1.13977 25.6297V59.3875C1.13977 60.3297 1.90666 61.0971 2.84941 61.0971H58.9979C59.9401 61.0971 60.7076 60.3297 60.7076 59.3875V25.6297C60.7076 24.6869 59.9401 23.92 58.9979 23.92H2.84941Z" fill="#63312D"/>
<path d="M35.9082 18.1851H29.5905C28.4803 18.1851 27.4173 18.6281 26.6354 19.4156L22.2711 23.8166C21.1336 24.963 21.1347 26.8118 22.2722 27.9582C23.427 29.1219 25.3086 29.1164 26.4573 27.9471L30.457 23.8744H35.9093L45.1143 33.0794L50.3846 28.1898L38.2757 15.8276L35.9082 18.1851Z" fill="#F8F3F3"/>
<path d="M12.1022 41.5315C11.0682 40.4953 11.0704 38.8162 12.1067 37.7828L14.1513 35.7436C15.1876 34.7096 16.8661 34.7124 17.9001 35.7481C18.9336 36.7844 18.9313 38.4634 17.8957 39.4969L15.851 41.536C14.8136 42.5695 13.1357 42.5672 12.1022 41.5315Z" fill="#F8F3F3"/>
<path d="M15.5043 45.6253C14.4702 44.5896 14.473 42.9106 15.5087 41.8766L17.8945 39.4969C18.9302 38.4634 20.6093 38.4656 21.6427 39.5013C22.6768 40.5376 22.6745 42.2166 21.6383 43.2501L19.253 45.6298C18.2168 46.6638 16.5394 46.6616 15.5043 45.6253Z" fill="#F8F3F3"/>
<path d="M19.2497 49.3787C18.2157 48.343 18.2179 46.664 19.2541 45.63L21.6394 43.2503C22.6757 42.2168 24.3547 42.219 25.3882 43.2547C26.4222 44.291 26.42 45.97 25.3837 47.0035L22.9984 49.3832C21.9611 50.4172 20.2832 50.415 19.2497 49.3787Z" fill="#F8F3F3"/>
<path d="M24.2311 51.8968C23.1976 50.8611 23.1999 49.1821 24.2361 48.148L25.3837 47.0027C26.4199 45.9692 28.0984 45.9715 29.1324 47.0072C30.1659 48.0434 30.1637 49.7225 29.128 50.7559L27.9799 51.9013C26.9442 52.9353 25.2651 52.9331 24.2311 51.8968Z" fill="#F8F3F3"/>
<path d="M48.8346 36.787L42.8358 30.801L36.4875 24.4539L26.4105 19.1162L22.8922 16.4683L11.3236 27.7029L15.6901 34.9872L29.5838 48.8904L31.8578 50.8972C32.9313 51.9685 34.6716 51.9674 35.7429 50.8928C36.8142 49.8192 36.8131 48.0784 35.7385 47.0071L34.9576 46.2279L36.9956 48.2609C38.0692 49.3323 39.81 49.3311 40.8813 48.2565C41.9526 47.1829 41.9515 45.4432 40.8763 44.3708L41.7289 45.2223C42.803 46.2936 44.5433 46.2925 45.6146 45.2179C46.6859 44.1443 46.6848 42.4035 45.6101 41.3322L44.9523 40.676C46.027 41.7474 47.7655 41.7451 48.838 40.6716C49.9104 39.5986 49.9082 37.8584 48.8346 36.787Z" fill="#F8F3F3"/>
<path d="M45.1121 33.6492C44.9663 33.6492 44.8204 33.593 44.7086 33.4828L35.6711 24.4454H30.6941L26.8608 28.3483C26.1985 29.0228 25.3142 29.3957 24.367 29.399C24.3636 29.399 24.3603 29.399 24.3558 29.399C23.4142 29.399 22.5288 29.0306 21.8643 28.3616C20.5102 26.9987 20.5102 24.7793 21.8643 23.4175L26.2274 19.017C27.1095 18.1266 28.3356 17.6162 29.5883 17.6162H35.6711L37.8711 15.4252C37.9791 15.3183 38.1254 15.2783 38.2757 15.2588C38.4282 15.2599 38.5729 15.3217 38.6792 15.4302L50.7903 27.7906C50.8972 27.9014 50.9567 28.0494 50.9534 28.203C50.95 28.3572 50.8838 28.503 50.7708 28.6076L45.5005 33.4973C45.3914 33.5991 45.2523 33.6492 45.1121 33.6492ZM30.4559 23.3045H35.9082C36.0602 23.3045 36.2049 23.3652 36.3117 23.4709L45.1265 32.2868L49.5659 28.1691L38.2701 16.6356L36.3106 18.5868C36.2037 18.6931 36.059 18.7532 35.9082 18.7532H29.5905C28.6389 18.7532 27.7089 19.1411 27.04 19.8167L22.6757 24.2177C21.7613 25.1382 21.7613 26.6359 22.6746 27.5569C23.1248 28.0082 23.722 28.2581 24.3581 28.2581H24.3659C25.0053 28.2559 25.6025 28.0038 26.0505 27.548L30.0513 23.4742C30.156 23.3663 30.3029 23.3045 30.4559 23.3045Z" fill="#63312D"/>
<path d="M33.7984 52.2704C32.914 52.2704 32.0809 51.9264 31.4543 51.3004L29.2065 49.3174L29.9611 48.4626L32.2334 50.4695C32.6703 50.9035 33.2162 51.1306 33.7972 51.1306H33.7995C34.381 51.1295 34.927 50.9024 35.3394 50.4912C35.7501 50.0799 35.9766 49.5328 35.9766 48.9501C35.9755 48.3691 35.749 47.8221 35.336 47.4113L30.7887 42.8729L31.5945 42.0659L36.1419 46.6044C36.7685 47.2305 37.1153 48.0636 37.1153 48.9501C37.1164 49.8356 36.7724 50.6692 36.1452 51.297C35.5186 51.9237 34.6843 52.2487 33.7984 52.2704Z" fill="#63312D"/>
<path d="M38.9379 49.6333C38.0887 49.6333 37.2405 49.3106 36.5933 48.6655L32.0459 44.1271L32.8517 43.3201L37.3991 47.8586C38.2473 48.7056 39.6286 48.7067 40.479 47.8564C41.3265 47.006 41.3243 45.6247 40.4745 44.7765L34.6694 38.9842L35.4752 38.1772L41.2798 43.9696C41.907 44.5957 42.2532 45.4288 42.2532 46.3142C42.2548 47.2013 41.9103 48.0344 41.2837 48.6611C40.6381 49.3083 39.7883 49.6333 38.9379 49.6333Z" fill="#63312D"/>
<path d="M43.67 46.5956C42.7857 46.5956 41.9537 46.2517 41.3265 45.6267L36.7791 41.0882L37.585 40.2812L42.1323 44.8197C42.5431 45.2304 43.0901 45.4558 43.67 45.4558H43.6734C44.2549 45.4558 44.8009 45.2276 45.2133 44.8164C46.0603 43.966 46.0592 42.5847 45.2088 41.7366L40.6609 37.1981L41.4667 36.3911L46.0147 40.9296C46.6413 41.5557 46.988 42.3888 46.988 43.2742C46.988 44.1597 46.6446 44.9934 46.018 45.6211C45.3925 46.2478 44.5605 46.5945 43.6734 46.5956C43.6734 46.5956 43.6711 46.5956 43.67 46.5956Z" fill="#63312D"/>
<path d="M46.8946 42.0495C46.0103 42.0495 45.1772 41.705 44.55 41.0805L38.5506 35.0945L39.3559 34.2876L45.3558 40.2736C46.2039 41.1201 47.5852 41.1212 48.4356 40.2714C48.8458 39.8595 49.0728 39.3125 49.0717 38.7303C49.0706 38.1476 48.8435 37.6017 48.4312 37.1904L42.4313 31.2044L43.2371 30.3975L49.237 36.3835C50.5315 37.6757 50.5337 39.7799 49.2415 41.075C48.6154 41.7016 47.7834 42.0478 46.8968 42.0478C46.8968 42.0495 46.8957 42.0495 46.8946 42.0495Z" fill="#63312D"/>
<path d="M15.2009 35.2796L10.8344 27.9957C10.6992 27.7687 10.7365 27.4782 10.9257 27.2934L22.4942 16.0588C22.6974 15.864 23.0107 15.8445 23.2338 16.0121L26.7528 18.66L26.0666 19.5705L22.9378 17.2158L12.0427 27.7959L16.1765 34.693L15.2009 35.2796Z" fill="#63312D"/>
<path d="M13.9783 42.8805C13.9772 42.8805 13.976 42.8805 13.9749 42.8805C13.114 42.8788 12.3048 42.5427 11.6987 41.9344C11.091 41.3255 10.7571 40.5163 10.7582 39.656C10.7582 38.7967 11.0944 37.9869 11.7032 37.3798L13.7479 35.3395C15.0051 34.0846 17.0486 34.0857 18.3025 35.3451C18.9097 35.9539 19.2436 36.7631 19.2436 37.6235C19.2425 38.4828 18.9063 39.292 18.298 39.8997L16.2528 41.9399C15.6445 42.546 14.8376 42.8805 13.9783 42.8805ZM16.023 35.5388C15.4675 35.5388 14.9466 35.7541 14.5537 36.1465L12.509 38.1867C12.1145 38.5785 11.898 39.1017 11.898 39.6582C11.8969 40.2141 12.1122 40.7362 12.5046 41.1307C12.8975 41.5237 13.4195 41.7418 13.976 41.7418H13.9783C14.5331 41.7418 15.054 41.5264 15.4475 41.1341L17.4922 39.0939C17.8862 38.7021 18.1027 38.1789 18.1038 37.6224C18.1038 37.0664 17.8884 36.5444 17.4966 36.1498C17.1032 35.7569 16.5811 35.5388 16.0252 35.5388C16.0241 35.5388 16.0241 35.5388 16.023 35.5388Z" fill="#63312D"/>
<path d="M17.3803 46.9743C17.3792 46.9743 17.3781 46.9743 17.377 46.9743C16.5166 46.9743 15.7085 46.6381 15.1008 46.0282C14.4942 45.4182 14.1592 44.609 14.1603 43.7497C14.1614 42.8894 14.497 42.0813 15.1053 41.4736L17.4922 39.0938C18.1005 38.4878 18.9074 38.1533 19.7667 38.1533H19.7706C20.631 38.155 21.4402 38.4911 22.0463 39.0994C22.654 39.7083 22.9879 40.5174 22.9879 41.3778C22.9868 42.2371 22.6506 43.0469 22.0418 43.654L19.6565 46.0337C19.0477 46.6403 18.2396 46.9743 17.3803 46.9743ZM15.9089 45.2234C16.3007 45.6169 16.8227 45.8334 17.3781 45.8345H17.3803C17.9352 45.8345 18.4572 45.6191 18.8518 45.2268L21.236 42.8471C21.6305 42.4553 21.847 41.9321 21.8481 41.3756C21.8481 40.8196 21.6328 40.2976 21.241 39.903C20.8475 39.5101 20.3255 39.292 19.7695 39.292C19.7684 39.292 19.7684 39.292 19.7667 39.292C19.2119 39.292 18.691 39.5079 18.2981 39.8997L15.9111 42.2794C15.0986 43.0897 15.0975 44.4109 15.9089 45.2234L15.5043 45.6258L15.9089 45.2234Z" fill="#63312D"/>
<path d="M21.1268 50.7251C20.2993 50.7251 19.4751 50.4107 18.8462 49.7801H18.8473C18.2396 49.1713 17.9045 48.3621 17.9057 47.5017C17.9068 46.6413 18.2429 45.8332 18.8529 45.2255L21.237 42.8458C21.8459 42.2397 22.6528 41.9053 23.5121 41.9053H23.5154C24.3764 41.9053 25.1856 42.242 25.7928 42.8514C26.3994 43.4602 26.7333 44.2694 26.7333 45.1298C26.7322 45.9891 26.396 46.7988 25.7872 47.406L23.4019 49.7857C22.7725 50.4129 21.9483 50.7251 21.1268 50.7251ZM23.511 43.045C22.9561 43.045 22.4352 43.261 22.0418 43.6528L19.6565 46.0325C19.2619 46.4248 19.0454 46.948 19.0443 47.5039C19.0443 48.0593 19.2597 48.5825 19.652 48.9765H19.6532C20.4612 49.7868 21.7808 49.7907 22.5961 48.9798L24.9802 46.6001C25.3748 46.2083 25.5913 45.6852 25.5924 45.1287C25.5924 44.5727 25.377 44.0507 24.9847 43.6561C24.5918 43.2632 24.0697 43.045 23.5132 43.045C23.5121 43.045 23.5121 43.045 23.511 43.045Z" fill="#63312D"/>
<path d="M26.1089 53.2446C26.1072 53.2446 26.1061 53.2446 26.105 53.2446C25.2446 53.2446 24.4354 52.9084 23.8277 52.2985C23.2216 51.6902 22.8877 50.8804 22.8888 50.0201C22.8888 49.1608 23.2249 48.3516 23.8338 47.7439L24.9813 46.5996C25.5902 45.9936 26.3971 45.6597 27.2564 45.6597H27.2598C28.1201 45.6597 28.9293 45.9958 29.5371 46.6052C30.1431 47.214 30.4776 48.0232 30.4776 48.8836C30.4759 49.7435 30.1398 50.5527 29.5315 51.1598L28.3834 52.304C27.7751 52.9107 26.9681 53.2446 26.1089 53.2446ZM27.2553 46.7983C26.6999 46.7983 26.1795 47.0137 25.7861 47.4055L24.6385 48.5497C24.2439 48.9421 24.0274 49.4652 24.0274 50.0212C24.0263 50.5777 24.2417 51.0997 24.6335 51.4937H24.6346C25.027 51.8872 25.549 52.1048 26.105 52.1048H26.1072C26.6626 52.1048 27.1835 51.8894 27.5764 51.4971L28.7245 50.3529C29.1185 49.9611 29.335 49.4379 29.3362 48.8814C29.3362 48.3254 29.1208 47.8034 28.729 47.4088C28.3355 47.0159 27.8135 46.7983 27.2575 46.7983C27.2564 46.7983 27.2564 46.7983 27.2553 46.7983Z" fill="#63312D"/>
<path d="M24.9725 14.446L9.6719 29.3281L0.569916 20.3352L15.8699 5.45312L24.9725 14.446Z" fill="#E34400"/>
<path d="M45.7136 5.45215L60.663 20.6859L51.6779 29.5035L36.7285 14.2703L45.7136 5.45215Z" fill="#A0A0A0"/>
<path d="M9.67184 29.8978C9.52715 29.8978 9.38245 29.8432 9.27059 29.7325L0.169711 20.7396C0.0606315 20.6327 -2.98866e-05 20.4852 0.00108317 20.3328C0.00219622 20.1803 0.0639707 20.0328 0.17305 19.927L15.4736 5.04386C15.6935 4.82737 16.0491 4.82848 16.2711 5.0472L25.3726 14.0401C25.4816 14.1475 25.5423 14.2944 25.5412 14.4469C25.5401 14.6 25.4783 14.7469 25.3687 14.8526L10.0686 29.7358C9.95901 29.8432 9.81543 29.8978 9.67184 29.8978ZM1.38349 20.3383L9.67407 28.5298L24.1571 14.4425L15.8665 6.25097L1.38349 20.3383Z" fill="#63312D"/>
<path d="M51.6779 30.0756C51.6757 30.0756 51.6745 30.0756 51.6723 30.0756C51.5209 30.0745 51.3774 30.0132 51.2711 29.9047L36.3233 14.6709C36.1029 14.4461 36.1068 14.0849 36.33 13.8651L45.3157 5.04636C45.4242 4.94062 45.5622 4.88553 45.7203 4.8833C45.8722 4.88441 46.0158 4.94619 46.1215 5.05471L61.0709 20.2885C61.2908 20.5133 61.2874 20.8745 61.0643 21.0944L52.078 29.9125C51.9712 30.0177 51.8276 30.0756 51.6779 30.0756ZM37.5349 14.2797L51.6862 28.6998L59.8583 20.6797L45.7069 6.25903L37.5349 14.2797Z" fill="#63312D"/>
</g>
<defs>
<clipPath id="clip0_11_216">
<rect width="67" height="67" fill="white"/>
</clipPath>
</defs>
</svg>
