<svg width="23" height="23" viewBox="0 0 23 23" fill="none" xmlns="http://www.w3.org/2000/svg">
<g clip-path="url(#clip0_1606_1964)">
<path d="M11.5 0.958374C9.41504 0.958374 7.37692 1.57663 5.64335 2.73497C3.90978 3.8933 2.55863 5.53968 1.76075 7.46592C0.962881 9.39216 0.75412 11.5117 1.16087 13.5566C1.56763 15.6015 2.57162 17.4798 4.0459 18.9541C5.52018 20.4284 7.39852 21.4324 9.44341 21.8392C11.4883 22.2459 13.6079 22.0371 15.5341 21.2393C17.4603 20.4414 19.1067 19.0902 20.2651 17.3567C21.4234 15.6231 22.0417 13.585 22.0417 11.5C22.0384 8.70523 20.9267 6.02583 18.9504 4.0496C16.9742 2.07337 14.2948 0.961671 11.5 0.958374ZM15.0525 15.0526C14.8728 15.2322 14.6291 15.3332 14.375 15.3332C14.1209 15.3332 13.8772 15.2322 13.6974 15.0526L10.8224 12.1776C10.6427 11.9979 10.5417 11.7542 10.5417 11.5V5.75004C10.5417 5.49587 10.6426 5.25212 10.8223 5.0724C11.0021 4.89267 11.2458 4.79171 11.5 4.79171C11.7541 4.79171 11.9979 4.89267 12.1776 5.0724C12.3574 5.25212 12.4583 5.49587 12.4583 5.75004V11.1033L15.0525 13.6975C15.2322 13.8772 15.3331 14.1209 15.3331 14.375C15.3331 14.6292 15.2322 14.8729 15.0525 15.0526Z" fill="#E44C0C"/>
</g>
<defs>
<clipPath id="clip0_1606_1964">
<rect width="23" height="23" fill="white"/>
</clipPath>
</defs>
</svg>
