<svg width="23" height="23" viewBox="0 0 23 23" fill="none" xmlns="http://www.w3.org/2000/svg">
<g clip-path="url(#clip0_1606_1967)">
<path d="M12.0729 10.0439L10.3032 10.3559L10.6777 12.4795L12.4473 12.1675C13.0328 12.0642 13.4251 11.5039 13.3219 10.9184C13.2187 10.333 12.6584 9.94095 12.0729 10.0439Z" fill="#E44C0C"/>
<path d="M22.9945 15.0052L21.5569 3.50475C21.4893 2.96783 20.8754 2.69617 20.4334 3.00341C16.53 5.71769 11.4132 6.7132 7.80806 7.07034C3.86242 7.46118 0.813453 7.19343 0.782905 7.19074C0.343641 7.15067 -0.0552806 7.51805 0.00630973 8.01073L1.44193 19.4958C1.48686 19.8556 1.79279 20.1256 2.15532 20.1256C6.01786 20.1256 9.56871 19.8243 12.7557 19.228C13.2377 19.1379 13.6343 18.7412 13.66 18.1275C13.766 15.623 15.8629 13.6348 18.3696 13.6568C19.913 13.6703 21.2796 14.4357 22.1213 15.6037C22.424 16.0238 23.0659 15.5825 22.9945 15.0052ZM12.697 13.5832L10.9273 13.8953L11.0521 14.6031L12.4678 14.3535C12.8589 14.2845 13.2316 14.5456 13.3005 14.9366C13.3694 15.3275 13.1084 15.7003 12.7174 15.7692L11.3017 16.0189L11.4265 16.7268C11.4955 17.1177 11.2344 17.4905 10.8435 17.5594C10.4534 17.6283 10.0799 17.3681 10.0108 16.9764C9.8591 16.1161 8.91467 10.76 8.76264 9.89779C8.69369 9.50687 8.95474 9.13405 9.34571 9.06513L11.8232 8.62825C13.1889 8.38746 14.4967 9.30278 14.7376 10.6689C14.9785 12.035 14.063 13.3424 12.697 13.5832Z" fill="#E44C0C"/>
<path d="M18.3279 21.5631C16.5444 21.5631 15.0934 20.1121 15.0934 18.3286C15.0934 16.5451 16.5444 15.0941 18.3279 15.0941C20.1114 15.0941 21.5624 16.5451 21.5624 18.3286C21.5624 20.1121 20.1114 21.5631 18.3279 21.5631Z" fill="#E44C0C"/>
<path d="M9.25135 2.26358C9.01667 2.40554 9.02489 2.74925 9.26433 2.88308C10.0724 3.33465 10.761 3.97576 11.2698 4.74575C11.3933 4.93267 11.6175 5.02612 11.8363 4.978C13.227 4.67207 14.6904 4.25958 16.1481 3.70383C16.3898 3.61165 16.4582 3.29876 16.275 3.11614C14.3826 1.23007 11.4829 0.913762 9.25135 2.26358Z" fill="#E44C0C"/>
<path d="M3.04941 5.28032C2.86904 5.51469 3.03953 5.85467 3.33526 5.8557C5.28737 5.86262 7.31792 5.72875 9.28562 5.44182C9.5814 5.39869 9.69802 5.03656 9.4845 4.82735C7.62938 3.00943 4.62416 3.234 3.04941 5.28032Z" fill="#E44C0C"/>
</g>
<defs>
<clipPath id="clip0_1606_1967">
<rect width="23" height="23" fill="white"/>
</clipPath>
</defs>
</svg>
