<svg width="44" height="44" viewBox="0 0 44 44" fill="none" xmlns="http://www.w3.org/2000/svg">
<path d="M33.1607 7.79484C33.1111 7.76481 30.0533 6.59058 30.0533 6.59058L29.1371 0.840988C29.06 0.3565 28.6421 0 28.1514 0H14.6064C14.1157 0 13.6979 0.3565 13.6206 0.840988L12.7044 6.59058C12.7044 6.59058 9.64656 7.76481 9.59657 7.79484C8.14146 8.30936 7.05695 9.46071 7.05695 11.0271V33.0087C7.05695 34.6257 8.33207 35.7708 9.73701 36.2751C9.74269 36.2775 9.74818 36.2808 9.75404 36.2832L12.7044 37.4092L13.6206 43.1588C13.6979 43.6431 14.1157 43.9998 14.6064 43.9998H28.1514C28.6421 43.9998 29.06 43.6433 29.1372 43.1588L30.0535 37.4092C30.0535 37.4092 33.0146 36.2773 33.0205 36.2751C34.3022 35.8985 35.7005 34.6257 35.7005 33.0087V26.9449H36.9429V23.161H35.7005V19.2105H36.9429V15.4265H35.7005V11.0273C35.7005 9.46071 34.6378 8.42746 33.1607 7.79484ZM32.4809 31.1678C32.4809 32.2447 31.6055 33.1201 30.5286 33.1201H12.229C11.1522 33.1201 10.2768 32.2447 10.2768 31.1678V12.8682C10.2768 11.7914 11.1522 10.916 12.229 10.916H30.5284C31.6053 10.916 32.4807 11.7914 32.4807 12.8682L32.4809 31.1678ZM25.7846 23.763C25.2833 25.2846 24.0948 26.7748 22.7087 26.7748C22.2843 26.7748 21.8802 26.6664 21.5061 26.4833C21.1331 26.6664 20.7283 26.7748 20.3038 26.7748C18.4642 26.7748 16.973 24.151 16.973 22.3114C16.973 19.0864 20.1462 19.0864 21.5063 20.2769C22.1982 19.6708 23.3598 19.3748 24.3336 19.6535C23.8961 20.0907 23.6251 20.6948 23.6251 21.3623C23.6249 22.6095 24.5709 23.6356 25.7846 23.763ZM19.5817 18.7357C18.9855 18.1396 18.7191 17.3389 18.7788 16.5594C19.5588 16.4993 20.3591 16.7657 20.9553 17.3619C21.5522 17.9588 21.8179 18.7592 21.7582 19.5386C20.9786 19.5987 20.1779 19.3323 19.5817 18.7357Z" fill="#BA4AF6"/>
</svg>
